<svg xmlns="http://www.w3.org/2000/svg" xmlns:xlink="http://www.w3.org/1999/xlink" width="133.982" height="142.567" viewBox="0 0 133.982 142.567">
  <defs>
    <linearGradient id="linear-gradient" y1="0.5" x2="1" y2="0.5" gradientUnits="objectBoundingBox">
      <stop offset="0" stop-color="#0057dc"/>
      <stop offset="0.202" stop-color="#036fe6"/>
      <stop offset="0.537" stop-color="#0890f3"/>
      <stop offset="0.815" stop-color="#0ba5fc"/>
      <stop offset="1" stop-color="#0cacff"/>
    </linearGradient>
  </defs>
  <g id="Component_27_1" data-name="Component 27 – 1" transform="translate(0.56 0.582)">
    <g id="Group_1581" data-name="Group 1581" transform="translate(50.46 10.724)">
      <g id="Group_1555" data-name="Group 1555" transform="translate(75.383)">
        <path id="Path_2975" data-name="Path 2975" d="M835.271,78.744h-4.81a1.373,1.373,0,0,1-1.371-1.371V72.561a1.373,1.373,0,0,1,1.371-1.371h4.81a1.373,1.373,0,0,1,1.372,1.371v4.81A1.372,1.372,0,0,1,835.271,78.744Zm-4.81-6.844a.663.663,0,0,0-.662.662v4.81a.663.663,0,0,0,.662.662h4.81a.663.663,0,0,0,.662-.662V72.561a.663.663,0,0,0-.662-.662h-4.81Z" transform="translate(-829.09 -71.19)" fill="#fff"/>
      </g>
      <g id="Group_1556" data-name="Group 1556" transform="translate(67.007)">
        <path id="Path_2976" data-name="Path 2976" d="M780.121,78.744h-4.81a1.373,1.373,0,0,1-1.371-1.371V72.561a1.373,1.373,0,0,1,1.371-1.371h4.81a1.373,1.373,0,0,1,1.372,1.371v4.81A1.371,1.371,0,0,1,780.121,78.744Zm-4.81-6.844a.663.663,0,0,0-.662.662v4.81a.663.663,0,0,0,.662.662h4.81a.663.663,0,0,0,.662-.662V72.561a.663.663,0,0,0-.662-.662h-4.81Z" transform="translate(-773.94 -71.19)" fill="#fff"/>
      </g>
      <g id="Group_1557" data-name="Group 1557" transform="translate(58.631)">
        <path id="Path_2977" data-name="Path 2977" d="M724.971,78.744h-4.81a1.373,1.373,0,0,1-1.371-1.371V72.561a1.373,1.373,0,0,1,1.371-1.371h4.81a1.373,1.373,0,0,1,1.371,1.371v4.81A1.371,1.371,0,0,1,724.971,78.744Zm-4.81-6.844a.663.663,0,0,0-.662.662v4.81a.663.663,0,0,0,.662.662h4.81a.663.663,0,0,0,.662-.662V72.561a.663.663,0,0,0-.662-.662h-4.81Z" transform="translate(-718.79 -71.19)" fill="#fff"/>
      </g>
      <g id="Group_1558" data-name="Group 1558" transform="translate(50.256)">
        <path id="Path_2978" data-name="Path 2978" d="M669.831,78.744h-4.81a1.373,1.373,0,0,1-1.371-1.371V72.561a1.373,1.373,0,0,1,1.371-1.371h4.81a1.373,1.373,0,0,1,1.371,1.371v4.81A1.373,1.373,0,0,1,669.831,78.744ZM665.02,71.9a.663.663,0,0,0-.662.662v4.81a.663.663,0,0,0,.662.662h4.81a.663.663,0,0,0,.662-.662V72.561a.663.663,0,0,0-.662-.662h-4.81Z" transform="translate(-663.65 -71.19)" fill="#fff"/>
      </g>
      <g id="Group_1559" data-name="Group 1559" transform="translate(41.88)">
        <path id="Path_2979" data-name="Path 2979" d="M614.682,78.744h-4.81a1.373,1.373,0,0,1-1.371-1.371V72.561a1.373,1.373,0,0,1,1.371-1.371h4.81a1.373,1.373,0,0,1,1.371,1.371v4.81A1.373,1.373,0,0,1,614.682,78.744ZM609.87,71.9a.663.663,0,0,0-.662.662v4.81a.663.663,0,0,0,.662.662h4.81a.663.663,0,0,0,.662-.662V72.561a.663.663,0,0,0-.662-.662h-4.81Z" transform="translate(-608.5 -71.19)" fill="#fff"/>
      </g>
      <g id="Group_1560" data-name="Group 1560" transform="translate(41.88 8.396)">
        <path id="Path_2980" data-name="Path 2980" d="M614.682,134.024h-4.81a1.373,1.373,0,0,1-1.371-1.371v-4.811a1.373,1.373,0,0,1,1.371-1.371h4.81a1.373,1.373,0,0,1,1.371,1.371v4.81A1.374,1.374,0,0,1,614.682,134.024Zm-4.812-6.845a.663.663,0,0,0-.662.662v4.81a.663.663,0,0,0,.662.662h4.81a.663.663,0,0,0,.662-.662v-4.81a.663.663,0,0,0-.662-.662Z" transform="translate(-608.5 -126.47)" fill="#fff"/>
      </g>
      <g id="Group_1561" data-name="Group 1561" transform="translate(41.88 16.617)">
        <path id="Path_2981" data-name="Path 2981" d="M614.682,188.153h-4.81a1.373,1.373,0,0,1-1.371-1.371v-4.81a1.373,1.373,0,0,1,1.371-1.371h4.81a1.373,1.373,0,0,1,1.371,1.371v4.81A1.373,1.373,0,0,1,614.682,188.153Zm-4.812-6.844a.663.663,0,0,0-.662.662v4.81a.663.663,0,0,0,.662.662h4.81a.663.663,0,0,0,.662-.662v-4.81a.663.663,0,0,0-.662-.662Z" transform="translate(-608.5 -180.6)" fill="#fff"/>
      </g>
      <g id="Group_1562" data-name="Group 1562" transform="translate(41.88 24.838)">
        <path id="Path_2982" data-name="Path 2982" d="M614.682,242.283h-4.81a1.373,1.373,0,0,1-1.371-1.371V236.1a1.373,1.373,0,0,1,1.371-1.371h4.81a1.373,1.373,0,0,1,1.371,1.371v4.81A1.373,1.373,0,0,1,614.682,242.283Zm-4.812-6.844a.663.663,0,0,0-.662.662v4.81a.663.663,0,0,0,.662.662h4.81a.663.663,0,0,0,.662-.662V236.1a.663.663,0,0,0-.662-.662Z" transform="translate(-608.5 -234.73)" fill="#fff"/>
      </g>
      <g id="Group_1563" data-name="Group 1563" transform="translate(41.88 33.059)">
        <path id="Path_2983" data-name="Path 2983" d="M614.682,296.413h-4.81a1.373,1.373,0,0,1-1.371-1.371v-4.81a1.373,1.373,0,0,1,1.371-1.371h4.81a1.373,1.373,0,0,1,1.371,1.371v4.81A1.373,1.373,0,0,1,614.682,296.413Zm-4.812-6.844a.663.663,0,0,0-.662.662v4.81a.663.663,0,0,0,.662.662h4.81a.663.663,0,0,0,.662-.662v-4.81a.663.663,0,0,0-.662-.662Z" transform="translate(-608.5 -288.86)" fill="#fff"/>
      </g>
      <path id="Path_2984" data-name="Path 2984" d="M614.682,350.543h-4.81a1.373,1.373,0,0,1-1.371-1.371v-4.81a1.373,1.373,0,0,1,1.371-1.371h4.81a1.373,1.373,0,0,1,1.371,1.371v4.81A1.374,1.374,0,0,1,614.682,350.543ZM609.87,343.7a.663.663,0,0,0-.662.662v4.81a.663.663,0,0,0,.662.662h4.81a.663.663,0,0,0,.662-.662v-4.81a.663.663,0,0,0-.662-.662Z" transform="translate(-566.62 -301.71)" fill="#fff"/>
      <g id="Group_1564" data-name="Group 1564" transform="translate(75.383 41.475)">
        <path id="Path_2985" data-name="Path 2985" d="M835.271,351.823h-4.81a1.373,1.373,0,0,1-1.371-1.371v-4.81a1.373,1.373,0,0,1,1.371-1.371h4.81a1.373,1.373,0,0,1,1.372,1.371v4.81A1.372,1.372,0,0,1,835.271,351.823Zm-4.81-6.844a.663.663,0,0,0-.662.662v4.81a.663.663,0,0,0,.662.662h4.81a.663.663,0,0,0,.662-.662v-4.81a.663.663,0,0,0-.662-.662Z" transform="translate(-829.09 -344.27)" fill="#fff"/>
      </g>
      <g id="Group_1565" data-name="Group 1565" transform="translate(67.007 41.475)">
        <path id="Path_2986" data-name="Path 2986" d="M780.121,351.823h-4.81a1.373,1.373,0,0,1-1.371-1.371v-4.81a1.373,1.373,0,0,1,1.371-1.371h4.81a1.373,1.373,0,0,1,1.372,1.371v4.81A1.371,1.371,0,0,1,780.121,351.823Zm-4.81-6.844a.663.663,0,0,0-.662.662v4.81a.663.663,0,0,0,.662.662h4.81a.663.663,0,0,0,.662-.662v-4.81a.663.663,0,0,0-.662-.662Z" transform="translate(-773.94 -344.27)" fill="#fff"/>
      </g>
      <g id="Group_1566" data-name="Group 1566" transform="translate(58.631 41.475)">
        <path id="Path_2987" data-name="Path 2987" d="M724.971,351.823h-4.81a1.373,1.373,0,0,1-1.371-1.371v-4.81a1.373,1.373,0,0,1,1.371-1.371h4.81a1.373,1.373,0,0,1,1.371,1.371v4.81A1.371,1.371,0,0,1,724.971,351.823Zm-4.81-6.844a.663.663,0,0,0-.662.662v4.81a.663.663,0,0,0,.662.662h4.81a.663.663,0,0,0,.662-.662v-4.81a.663.663,0,0,0-.662-.662Z" transform="translate(-718.79 -344.27)" fill="#fff"/>
      </g>
      <g id="Group_1567" data-name="Group 1567" transform="translate(50.256 41.475)">
        <path id="Path_2988" data-name="Path 2988" d="M669.831,351.823h-4.81a1.373,1.373,0,0,1-1.371-1.371v-4.81a1.373,1.373,0,0,1,1.371-1.371h4.81a1.373,1.373,0,0,1,1.371,1.371v4.81A1.373,1.373,0,0,1,669.831,351.823Zm-4.812-6.844a.663.663,0,0,0-.662.662v4.81a.663.663,0,0,0,.662.662h4.81a.663.663,0,0,0,.662-.662v-4.81a.663.663,0,0,0-.662-.662Z" transform="translate(-663.65 -344.27)" fill="#fff"/>
      </g>
      <g id="Group_1568" data-name="Group 1568" transform="translate(41.88 49.5)">
        <path id="Path_2989" data-name="Path 2989" d="M614.682,404.663h-4.81a1.373,1.373,0,0,1-1.371-1.371v-4.81a1.373,1.373,0,0,1,1.371-1.371h4.81a1.373,1.373,0,0,1,1.371,1.371v4.81A1.373,1.373,0,0,1,614.682,404.663Zm-4.812-6.844a.663.663,0,0,0-.662.662v4.81a.663.663,0,0,0,.662.662h4.81a.663.663,0,0,0,.662-.662v-4.81a.663.663,0,0,0-.662-.662Z" transform="translate(-608.5 -397.11)" fill="#fff"/>
      </g>
      <g id="Group_1569" data-name="Group 1569" transform="translate(41.88 57.721)">
        <path id="Path_2990" data-name="Path 2990" d="M614.682,458.793h-4.81a1.373,1.373,0,0,1-1.371-1.371v-4.81a1.373,1.373,0,0,1,1.371-1.371h4.81a1.373,1.373,0,0,1,1.371,1.371v4.81A1.373,1.373,0,0,1,614.682,458.793Zm-4.812-6.844a.663.663,0,0,0-.662.662v4.81a.663.663,0,0,0,.662.662h4.81a.663.663,0,0,0,.662-.662v-4.81a.663.663,0,0,0-.662-.662Z" transform="translate(-608.5 -451.24)" fill="#fff"/>
      </g>
      <g id="Group_1570" data-name="Group 1570" transform="translate(41.88 65.942)">
        <path id="Path_2991" data-name="Path 2991" d="M614.682,512.923h-4.81a1.373,1.373,0,0,1-1.371-1.371v-4.81a1.373,1.373,0,0,1,1.371-1.372h4.81a1.373,1.373,0,0,1,1.371,1.372v4.81A1.373,1.373,0,0,1,614.682,512.923Zm-4.812-6.844a.663.663,0,0,0-.662.662v4.81a.663.663,0,0,0,.662.662h4.81a.663.663,0,0,0,.662-.662v-4.81a.663.663,0,0,0-.662-.662Z" transform="translate(-608.5 -505.37)" fill="#fff"/>
      </g>
      <g id="Group_1571" data-name="Group 1571" transform="translate(41.88 74.163)">
        <path id="Path_2992" data-name="Path 2992" d="M614.682,567.053h-4.81a1.372,1.372,0,0,1-1.371-1.371v-4.81a1.373,1.373,0,0,1,1.371-1.372h4.81a1.373,1.373,0,0,1,1.371,1.372v4.81A1.374,1.374,0,0,1,614.682,567.053Zm-4.812-6.845a.663.663,0,0,0-.662.662v4.81a.663.663,0,0,0,.662.662h4.81a.663.663,0,0,0,.662-.662v-4.81a.663.663,0,0,0-.662-.662Z" transform="translate(-608.5 -559.5)" fill="#fff"/>
      </g>
      <g id="Group_1572" data-name="Group 1572" transform="translate(0 41.28)">
        <path id="Path_2993" data-name="Path 2993" d="M338.931,350.543h-4.81a1.373,1.373,0,0,1-1.371-1.371v-4.81a1.373,1.373,0,0,1,1.371-1.371h4.81a1.373,1.373,0,0,1,1.371,1.371v4.81A1.373,1.373,0,0,1,338.931,350.543Zm-4.81-6.845a.663.663,0,0,0-.662.662v4.81a.663.663,0,0,0,.662.662h4.81a.663.663,0,0,0,.662-.662v-4.81a.663.663,0,0,0-.662-.662Z" transform="translate(-332.75 -342.99)" fill="#fff"/>
      </g>
      <g id="Group_1573" data-name="Group 1573" transform="translate(33.504 41.475)">
        <path id="Path_2994" data-name="Path 2994" d="M559.531,351.823h-4.81a1.373,1.373,0,0,1-1.371-1.371v-4.81a1.373,1.373,0,0,1,1.371-1.371h4.81a1.373,1.373,0,0,1,1.371,1.371v4.81A1.373,1.373,0,0,1,559.531,351.823Zm-4.81-6.844a.663.663,0,0,0-.662.662v4.81a.663.663,0,0,0,.662.662h4.81a.663.663,0,0,0,.662-.662v-4.81a.663.663,0,0,0-.662-.662Z" transform="translate(-553.35 -344.27)" fill="#fff"/>
      </g>
      <g id="Group_1574" data-name="Group 1574" transform="translate(25.128 41.475)">
        <path id="Path_2995" data-name="Path 2995" d="M504.381,351.823h-4.81a1.373,1.373,0,0,1-1.371-1.371v-4.81a1.373,1.373,0,0,1,1.371-1.371h4.81a1.373,1.373,0,0,1,1.371,1.371v4.81A1.373,1.373,0,0,1,504.381,351.823Zm-4.81-6.844a.663.663,0,0,0-.662.662v4.81a.663.663,0,0,0,.662.662h4.81a.663.663,0,0,0,.662-.662v-4.81a.663.663,0,0,0-.662-.662Z" transform="translate(-498.2 -344.27)" fill="#fff"/>
      </g>
      <g id="Group_1575" data-name="Group 1575" transform="translate(16.752 41.475)">
        <path id="Path_2996" data-name="Path 2996" d="M449.231,351.823h-4.81a1.373,1.373,0,0,1-1.372-1.371v-4.81a1.373,1.373,0,0,1,1.372-1.371h4.81a1.373,1.373,0,0,1,1.371,1.371v4.81A1.373,1.373,0,0,1,449.231,351.823Zm-4.81-6.844a.663.663,0,0,0-.662.662v4.81a.663.663,0,0,0,.662.662h4.81a.663.663,0,0,0,.662-.662v-4.81a.663.663,0,0,0-.662-.662Z" transform="translate(-443.05 -344.27)" fill="#fff"/>
      </g>
      <g id="Group_1576" data-name="Group 1576" transform="translate(8.376 41.475)">
        <path id="Path_2997" data-name="Path 2997" d="M394.081,351.823h-4.81a1.373,1.373,0,0,1-1.371-1.371v-4.81a1.373,1.373,0,0,1,1.371-1.371h4.81a1.373,1.373,0,0,1,1.371,1.371v4.81A1.372,1.372,0,0,1,394.081,351.823Zm-4.81-6.844a.663.663,0,0,0-.662.662v4.81a.663.663,0,0,0,.662.662h4.81a.663.663,0,0,0,.662-.662v-4.81a.663.663,0,0,0-.662-.662Z" transform="translate(-387.9 -344.27)" fill="#fff"/>
      </g>
      <g id="Group_1577" data-name="Group 1577" transform="translate(0 49.5)">
        <path id="Path_2998" data-name="Path 2998" d="M338.931,404.663h-4.81a1.373,1.373,0,0,1-1.371-1.371v-4.81a1.373,1.373,0,0,1,1.371-1.371h4.81a1.373,1.373,0,0,1,1.371,1.371v4.81A1.372,1.372,0,0,1,338.931,404.663Zm-4.81-6.844a.663.663,0,0,0-.662.662v4.81a.663.663,0,0,0,.662.662h4.81a.663.663,0,0,0,.662-.662v-4.81a.663.663,0,0,0-.662-.662Z" transform="translate(-332.75 -397.11)" fill="#fff"/>
      </g>
      <g id="Group_1578" data-name="Group 1578" transform="translate(0 57.721)">
        <path id="Path_2999" data-name="Path 2999" d="M338.931,458.793h-4.81a1.373,1.373,0,0,1-1.371-1.371v-4.81a1.373,1.373,0,0,1,1.371-1.371h4.81a1.373,1.373,0,0,1,1.371,1.371v4.81A1.372,1.372,0,0,1,338.931,458.793Zm-4.81-6.844a.663.663,0,0,0-.662.662v4.81a.663.663,0,0,0,.662.662h4.81a.663.663,0,0,0,.662-.662v-4.81a.663.663,0,0,0-.662-.662Z" transform="translate(-332.75 -451.24)" fill="#fff"/>
      </g>
      <g id="Group_1579" data-name="Group 1579" transform="translate(0 65.942)">
        <path id="Path_3000" data-name="Path 3000" d="M338.931,512.923h-4.81a1.373,1.373,0,0,1-1.371-1.371v-4.81a1.373,1.373,0,0,1,1.371-1.372h4.81a1.373,1.373,0,0,1,1.371,1.372v4.81A1.372,1.372,0,0,1,338.931,512.923Zm-4.81-6.844a.663.663,0,0,0-.662.662v4.81a.663.663,0,0,0,.662.662h4.81a.663.663,0,0,0,.662-.662v-4.81a.663.663,0,0,0-.662-.662Z" transform="translate(-332.75 -505.37)" fill="#fff"/>
      </g>
      <g id="Group_1580" data-name="Group 1580" transform="translate(0 74.163)">
        <path id="Path_3001" data-name="Path 3001" d="M338.931,567.053h-4.81a1.373,1.373,0,0,1-1.371-1.371v-4.81a1.373,1.373,0,0,1,1.371-1.372h4.81a1.373,1.373,0,0,1,1.371,1.372v4.81A1.373,1.373,0,0,1,338.931,567.053Zm-4.81-6.845a.663.663,0,0,0-.662.662v4.81a.663.663,0,0,0,.662.662h4.81a.663.663,0,0,0,.662-.662v-4.81a.663.663,0,0,0-.662-.662Z" transform="translate(-332.75 -559.5)" fill="#fff"/>
      </g>
    </g>
    <g id="Group_1597" data-name="Group 1597" transform="translate(8.579 93.107)">
      <g id="Group_1582" data-name="Group 1582" transform="translate(83.76)">
        <path id="Path_3002" data-name="Path 3002" d="M614.682,621.173h-4.81A1.373,1.373,0,0,1,608.5,619.8v-4.81a1.373,1.373,0,0,1,1.371-1.372h4.81a1.373,1.373,0,0,1,1.371,1.372v4.81A1.373,1.373,0,0,1,614.682,621.173Zm-4.812-6.844a.663.663,0,0,0-.662.662v4.81a.663.663,0,0,0,.662.662h4.81a.663.663,0,0,0,.662-.662v-4.81a.663.663,0,0,0-.662-.662Z" transform="translate(-608.5 -613.62)" fill="#fff"/>
      </g>
      <g id="Group_1583" data-name="Group 1583" transform="translate(117.263 0.196)">
        <path id="Path_3003" data-name="Path 3003" d="M835.271,622.463h-4.81a1.373,1.373,0,0,1-1.371-1.371v-4.81a1.373,1.373,0,0,1,1.371-1.372h4.81a1.373,1.373,0,0,1,1.372,1.372v4.81A1.372,1.372,0,0,1,835.271,622.463Zm-4.81-6.844a.663.663,0,0,0-.662.662v4.81a.663.663,0,0,0,.662.662h4.81a.663.663,0,0,0,.662-.662v-4.81a.663.663,0,0,0-.662-.662Z" transform="translate(-829.09 -614.91)" fill="#fff"/>
      </g>
      <g id="Group_1584" data-name="Group 1584" transform="translate(108.887 0.196)">
        <path id="Path_3004" data-name="Path 3004" d="M780.121,622.463h-4.81a1.373,1.373,0,0,1-1.371-1.371v-4.81a1.373,1.373,0,0,1,1.371-1.372h4.81a1.373,1.373,0,0,1,1.372,1.372v4.81A1.371,1.371,0,0,1,780.121,622.463Zm-4.81-6.844a.663.663,0,0,0-.662.662v4.81a.663.663,0,0,0,.662.662h4.81a.663.663,0,0,0,.662-.662v-4.81a.663.663,0,0,0-.662-.662Z" transform="translate(-773.94 -614.91)" fill="#fff"/>
      </g>
      <g id="Group_1585" data-name="Group 1585" transform="translate(100.511 0.196)">
        <path id="Path_3005" data-name="Path 3005" d="M724.971,622.463h-4.81a1.373,1.373,0,0,1-1.371-1.371v-4.81a1.373,1.373,0,0,1,1.371-1.372h4.81a1.373,1.373,0,0,1,1.371,1.372v4.81A1.371,1.371,0,0,1,724.971,622.463Zm-4.81-6.844a.663.663,0,0,0-.662.662v4.81a.663.663,0,0,0,.662.662h4.81a.663.663,0,0,0,.662-.662v-4.81a.663.663,0,0,0-.662-.662Z" transform="translate(-718.79 -614.91)" fill="#fff"/>
      </g>
      <g id="Group_1586" data-name="Group 1586" transform="translate(92.136 0.196)">
        <path id="Path_3006" data-name="Path 3006" d="M669.831,622.463h-4.81a1.373,1.373,0,0,1-1.371-1.371v-4.81a1.373,1.373,0,0,1,1.371-1.372h4.81a1.373,1.373,0,0,1,1.371,1.372v4.81A1.373,1.373,0,0,1,669.831,622.463Zm-4.812-6.844a.663.663,0,0,0-.662.662v4.81a.663.663,0,0,0,.662.662h4.81a.663.663,0,0,0,.662-.662v-4.81a.663.663,0,0,0-.662-.662Z" transform="translate(-663.65 -614.91)" fill="#fff"/>
      </g>
      <g id="Group_1587" data-name="Group 1587" transform="translate(41.88)">
        <path id="Path_3007" data-name="Path 3007" d="M338.931,621.173h-4.81a1.373,1.373,0,0,1-1.371-1.372v-4.81a1.373,1.373,0,0,1,1.371-1.372h4.81a1.373,1.373,0,0,1,1.371,1.372v4.81A1.372,1.372,0,0,1,338.931,621.173Zm-4.81-6.844a.663.663,0,0,0-.662.662v4.81a.663.663,0,0,0,.662.662h4.81a.663.663,0,0,0,.662-.662v-4.81a.663.663,0,0,0-.662-.662Z" transform="translate(-332.75 -613.62)" fill="#fff"/>
      </g>
      <g id="Group_1588" data-name="Group 1588" transform="translate(75.384 0.196)">
        <path id="Path_3008" data-name="Path 3008" d="M559.531,622.463h-4.81a1.373,1.373,0,0,1-1.371-1.371v-4.81a1.373,1.373,0,0,1,1.371-1.372h4.81a1.373,1.373,0,0,1,1.371,1.372v4.81A1.373,1.373,0,0,1,559.531,622.463Zm-4.81-6.844a.663.663,0,0,0-.662.662v4.81a.663.663,0,0,0,.662.662h4.81a.663.663,0,0,0,.662-.662v-4.81a.663.663,0,0,0-.662-.662Z" transform="translate(-553.35 -614.91)" fill="#fff"/>
      </g>
      <g id="Group_1589" data-name="Group 1589" transform="translate(67.008 0.196)">
        <path id="Path_3009" data-name="Path 3009" d="M504.381,622.463h-4.81a1.373,1.373,0,0,1-1.371-1.371v-4.81a1.373,1.373,0,0,1,1.371-1.372h4.81a1.373,1.373,0,0,1,1.371,1.372v4.81A1.373,1.373,0,0,1,504.381,622.463Zm-4.81-6.844a.663.663,0,0,0-.662.662v4.81a.663.663,0,0,0,.662.662h4.81a.663.663,0,0,0,.662-.662v-4.81a.663.663,0,0,0-.662-.662Z" transform="translate(-498.2 -614.91)" fill="#fff"/>
      </g>
      <g id="Group_1590" data-name="Group 1590" transform="translate(58.632 0.196)">
        <path id="Path_3010" data-name="Path 3010" d="M449.231,622.463h-4.81a1.373,1.373,0,0,1-1.372-1.371v-4.81a1.373,1.373,0,0,1,1.372-1.372h4.81a1.373,1.373,0,0,1,1.371,1.372v4.81A1.373,1.373,0,0,1,449.231,622.463Zm-4.81-6.844a.663.663,0,0,0-.662.662v4.81a.663.663,0,0,0,.662.662h4.81a.663.663,0,0,0,.662-.662v-4.81a.663.663,0,0,0-.662-.662Z" transform="translate(-443.05 -614.91)" fill="#fff"/>
      </g>
      <g id="Group_1591" data-name="Group 1591" transform="translate(50.256 0.196)">
        <path id="Path_3011" data-name="Path 3011" d="M394.081,622.463h-4.81a1.373,1.373,0,0,1-1.371-1.371v-4.81a1.373,1.373,0,0,1,1.371-1.372h4.81a1.373,1.373,0,0,1,1.371,1.372v4.81A1.372,1.372,0,0,1,394.081,622.463Zm-4.81-6.844a.663.663,0,0,0-.662.662v4.81a.663.663,0,0,0,.662.662h4.81a.663.663,0,0,0,.662-.662v-4.81a.663.663,0,0,0-.662-.662Z" transform="translate(-387.9 -614.91)" fill="#fff"/>
      </g>
      <g id="Group_1592" data-name="Group 1592">
        <path id="Path_3012" data-name="Path 3012" d="M63.183,621.173H58.371A1.373,1.373,0,0,1,57,619.8v-4.81a1.373,1.373,0,0,1,1.371-1.372h4.81a1.373,1.373,0,0,1,1.371,1.372v4.81A1.371,1.371,0,0,1,63.183,621.173Zm-4.811-6.844a.663.663,0,0,0-.662.662v4.81a.663.663,0,0,0,.662.662h4.81a.663.663,0,0,0,.662-.662v-4.81a.663.663,0,0,0-.662-.662Z" transform="translate(-57 -613.62)" fill="#fff"/>
      </g>
      <g id="Group_1593" data-name="Group 1593" transform="translate(33.504 0.196)">
        <path id="Path_3013" data-name="Path 3013" d="M283.781,622.463h-4.81a1.373,1.373,0,0,1-1.371-1.371v-4.81a1.373,1.373,0,0,1,1.371-1.372h4.81a1.373,1.373,0,0,1,1.371,1.372v4.81A1.372,1.372,0,0,1,283.781,622.463Zm-4.81-6.844a.663.663,0,0,0-.662.662v4.81a.663.663,0,0,0,.662.662h4.81a.663.663,0,0,0,.662-.662v-4.81a.663.663,0,0,0-.662-.662Z" transform="translate(-277.6 -614.91)" fill="#fff"/>
      </g>
      <g id="Group_1594" data-name="Group 1594" transform="translate(25.128 0.196)">
        <path id="Path_3014" data-name="Path 3014" d="M228.631,622.463h-4.81a1.373,1.373,0,0,1-1.371-1.371v-4.81a1.373,1.373,0,0,1,1.371-1.372h4.81A1.373,1.373,0,0,1,230,616.281v4.81A1.371,1.371,0,0,1,228.631,622.463Zm-4.81-6.844a.663.663,0,0,0-.662.662v4.81a.663.663,0,0,0,.662.662h4.81a.663.663,0,0,0,.662-.662v-4.81a.663.663,0,0,0-.662-.662Z" transform="translate(-222.45 -614.91)" fill="#fff"/>
      </g>
      <g id="Group_1595" data-name="Group 1595" transform="translate(16.754 0.196)">
        <path id="Path_3015" data-name="Path 3015" d="M173.491,622.463h-4.81a1.373,1.373,0,0,1-1.371-1.371v-4.81a1.373,1.373,0,0,1,1.371-1.372h4.81a1.373,1.373,0,0,1,1.371,1.372v4.81A1.373,1.373,0,0,1,173.491,622.463Zm-4.811-6.844a.663.663,0,0,0-.662.662v4.81a.663.663,0,0,0,.662.662h4.81a.663.663,0,0,0,.662-.662v-4.81a.663.663,0,0,0-.662-.662Z" transform="translate(-167.31 -614.91)" fill="#fff"/>
      </g>
      <g id="Group_1596" data-name="Group 1596" transform="translate(8.378 0.196)">
        <path id="Path_3016" data-name="Path 3016" d="M118.341,622.463h-4.81a1.373,1.373,0,0,1-1.371-1.371v-4.81a1.373,1.373,0,0,1,1.371-1.372h4.81a1.373,1.373,0,0,1,1.371,1.372v4.81A1.373,1.373,0,0,1,118.341,622.463Zm-4.812-6.844a.663.663,0,0,0-.662.662v4.81a.663.663,0,0,0,.662.662h4.81a.663.663,0,0,0,.662-.662v-4.81a.663.663,0,0,0-.662-.662Z" transform="translate(-112.16 -614.91)" fill="#fff"/>
      </g>
    </g>
    <g id="Group_1610" data-name="Group 1610" transform="translate(8.579 101.328)">
      <g id="Group_1598" data-name="Group 1598" transform="translate(83.76)">
        <path id="Path_3017" data-name="Path 3017" d="M614.682,675.3h-4.81a1.373,1.373,0,0,1-1.371-1.371v-4.81a1.373,1.373,0,0,1,1.371-1.372h4.81a1.373,1.373,0,0,1,1.371,1.372v4.81A1.373,1.373,0,0,1,614.682,675.3Zm-4.812-6.844a.663.663,0,0,0-.662.662v4.81a.663.663,0,0,0,.662.662h4.81a.663.663,0,0,0,.662-.662v-4.81a.663.663,0,0,0-.662-.662Z" transform="translate(-608.5 -667.75)" fill="#fff"/>
      </g>
      <g id="Group_1599" data-name="Group 1599" transform="translate(83.76 8.22)">
        <path id="Path_3018" data-name="Path 3018" d="M614.682,729.424h-4.81a1.373,1.373,0,0,1-1.371-1.371v-4.811a1.373,1.373,0,0,1,1.371-1.372h4.81a1.373,1.373,0,0,1,1.371,1.372v4.81A1.373,1.373,0,0,1,614.682,729.424Zm-4.812-6.843a.663.663,0,0,0-.662.662v4.81a.663.663,0,0,0,.662.662h4.81a.663.663,0,0,0,.662-.662v-4.811a.663.663,0,0,0-.662-.662h-4.81Z" transform="translate(-608.5 -721.87)" fill="#fff"/>
      </g>
      <g id="Group_1600" data-name="Group 1600" transform="translate(83.76 16.442)">
        <path id="Path_3019" data-name="Path 3019" d="M614.682,783.563h-4.81a1.373,1.373,0,0,1-1.371-1.371v-4.81a1.373,1.373,0,0,1,1.371-1.371h4.81a1.373,1.373,0,0,1,1.371,1.371v4.81A1.374,1.374,0,0,1,614.682,783.563Zm-4.812-6.845a.663.663,0,0,0-.662.662v4.81a.663.663,0,0,0,.662.662h4.81a.663.663,0,0,0,.662-.662v-4.81a.663.663,0,0,0-.662-.662Z" transform="translate(-608.5 -776.01)" fill="#fff"/>
      </g>
      <g id="Group_1601" data-name="Group 1601" transform="translate(83.76 24.662)">
        <path id="Path_3020" data-name="Path 3020" d="M614.682,837.683h-4.81a1.373,1.373,0,0,1-1.371-1.371V831.5a1.373,1.373,0,0,1,1.371-1.371h4.81a1.373,1.373,0,0,1,1.371,1.371v4.81A1.373,1.373,0,0,1,614.682,837.683Zm-4.812-6.843a.663.663,0,0,0-.662.662v4.81a.663.663,0,0,0,.662.662h4.81a.663.663,0,0,0,.662-.662V831.5a.663.663,0,0,0-.662-.662Z" transform="translate(-608.5 -830.13)" fill="#fff"/>
      </g>
      <g id="Group_1602" data-name="Group 1602" transform="translate(41.88)">
        <path id="Path_3021" data-name="Path 3021" d="M338.931,675.3h-4.81a1.373,1.373,0,0,1-1.371-1.371v-4.81a1.373,1.373,0,0,1,1.371-1.372h4.81a1.373,1.373,0,0,1,1.371,1.372v4.81A1.372,1.372,0,0,1,338.931,675.3Zm-4.81-6.844a.663.663,0,0,0-.662.662v4.81a.663.663,0,0,0,.662.662h4.81a.663.663,0,0,0,.662-.662v-4.81a.663.663,0,0,0-.662-.662Z" transform="translate(-332.75 -667.75)" fill="#fff"/>
      </g>
      <g id="Group_1603" data-name="Group 1603" transform="translate(41.88 8.22)">
        <path id="Path_3022" data-name="Path 3022" d="M338.931,729.424h-4.81a1.373,1.373,0,0,1-1.371-1.371v-4.811a1.373,1.373,0,0,1,1.371-1.372h4.81a1.373,1.373,0,0,1,1.371,1.372v4.81A1.372,1.372,0,0,1,338.931,729.424Zm-4.81-6.843a.663.663,0,0,0-.662.662v4.81a.663.663,0,0,0,.662.662h4.81a.663.663,0,0,0,.662-.662v-4.811a.663.663,0,0,0-.662-.662h-4.81Z" transform="translate(-332.75 -721.87)" fill="#fff"/>
      </g>
      <g id="Group_1604" data-name="Group 1604" transform="translate(41.88 16.442)">
        <path id="Path_3023" data-name="Path 3023" d="M338.931,783.563h-4.81a1.373,1.373,0,0,1-1.371-1.371v-4.81a1.373,1.373,0,0,1,1.371-1.371h4.81a1.373,1.373,0,0,1,1.371,1.371v4.81A1.373,1.373,0,0,1,338.931,783.563Zm-4.81-6.845a.663.663,0,0,0-.662.662v4.81a.663.663,0,0,0,.662.662h4.81a.663.663,0,0,0,.662-.662v-4.81a.663.663,0,0,0-.662-.662Z" transform="translate(-332.75 -776.01)" fill="#fff"/>
      </g>
      <g id="Group_1605" data-name="Group 1605" transform="translate(41.88 24.662)">
        <path id="Path_3024" data-name="Path 3024" d="M338.931,837.683h-4.81a1.373,1.373,0,0,1-1.371-1.371V831.5a1.373,1.373,0,0,1,1.371-1.371h4.81A1.373,1.373,0,0,1,340.3,831.5v4.81A1.372,1.372,0,0,1,338.931,837.683Zm-4.81-6.843a.663.663,0,0,0-.662.662v4.81a.663.663,0,0,0,.662.662h4.81a.663.663,0,0,0,.662-.662V831.5a.663.663,0,0,0-.662-.662Z" transform="translate(-332.75 -830.13)" fill="#fff"/>
      </g>
      <g id="Group_1606" data-name="Group 1606">
        <path id="Path_3025" data-name="Path 3025" d="M63.183,675.3H58.371A1.373,1.373,0,0,1,57,673.931v-4.81a1.373,1.373,0,0,1,1.371-1.372h4.81a1.373,1.373,0,0,1,1.371,1.372v4.81A1.37,1.37,0,0,1,63.183,675.3Zm-4.811-6.844a.663.663,0,0,0-.662.662v4.81a.663.663,0,0,0,.662.662h4.81a.663.663,0,0,0,.662-.662v-4.81a.663.663,0,0,0-.662-.662Z" transform="translate(-57 -667.75)" fill="#fff"/>
      </g>
      <g id="Group_1607" data-name="Group 1607" transform="translate(0 8.22)">
        <path id="Path_3026" data-name="Path 3026" d="M63.183,729.424H58.371A1.373,1.373,0,0,1,57,728.053v-4.811a1.373,1.373,0,0,1,1.371-1.372h4.81a1.373,1.373,0,0,1,1.371,1.372v4.81A1.371,1.371,0,0,1,63.183,729.424Zm-4.811-6.843a.663.663,0,0,0-.662.662v4.81a.663.663,0,0,0,.662.662h4.81a.663.663,0,0,0,.662-.662v-4.811a.663.663,0,0,0-.662-.662h-4.81Z" transform="translate(-57 -721.87)" fill="#fff"/>
      </g>
      <g id="Group_1608" data-name="Group 1608" transform="translate(0 16.442)">
        <path id="Path_3027" data-name="Path 3027" d="M63.183,783.563H58.371A1.373,1.373,0,0,1,57,782.191v-4.81a1.373,1.373,0,0,1,1.371-1.371h4.81a1.373,1.373,0,0,1,1.371,1.371v4.81A1.372,1.372,0,0,1,63.183,783.563Zm-4.811-6.845a.663.663,0,0,0-.662.662v4.81a.663.663,0,0,0,.662.662h4.81a.663.663,0,0,0,.662-.662v-4.81a.663.663,0,0,0-.662-.662Z" transform="translate(-57 -776.01)" fill="#fff"/>
      </g>
      <g id="Group_1609" data-name="Group 1609" transform="translate(0 24.662)">
        <path id="Path_3028" data-name="Path 3028" d="M63.183,837.683H58.371A1.373,1.373,0,0,1,57,836.311V831.5a1.373,1.373,0,0,1,1.371-1.371h4.81a1.373,1.373,0,0,1,1.371,1.371v4.81A1.37,1.37,0,0,1,63.183,837.683Zm-4.811-6.843a.663.663,0,0,0-.662.662v4.81a.663.663,0,0,0,.662.662h4.81a.663.663,0,0,0,.662-.662V831.5a.663.663,0,0,0-.662-.662Z" transform="translate(-57 -830.13)" fill="#fff"/>
      </g>
    </g>
    <path id="Path_3029" data-name="Path 3029" d="M701.806,164.149H679.655a3.854,3.854,0,0,1-3.855-3.855v-22.15a3.854,3.854,0,0,1,3.855-3.855H701.8a3.854,3.854,0,0,1,3.855,3.855v22.15A3.854,3.854,0,0,1,701.806,164.149Z" transform="translate(-573.239 -113.982)" fill="url(#linear-gradient)"/>
    <path id="Path_3030" data-name="Path 3030" d="M701.382,163.8H679.231a3.935,3.935,0,0,1-3.931-3.931v-22.15a3.935,3.935,0,0,1,3.931-3.931h22.15a3.935,3.935,0,0,1,3.93,3.931v22.15A3.935,3.935,0,0,1,701.382,163.8Zm-22.151-29.858a3.783,3.783,0,0,0-3.779,3.779v22.15a3.783,3.783,0,0,0,3.779,3.779h22.15a3.783,3.783,0,0,0,3.779-3.779V137.721a3.783,3.783,0,0,0-3.779-3.779h-22.15Z" transform="translate(-572.815 -113.558)" fill="#0cacff"/>
    <g id="Group_1611" data-name="Group 1611" transform="translate(102.485 102.516)">
      <path id="Path_3031" data-name="Path 3031" d="M701.806,705.929H679.655a3.854,3.854,0,0,1-3.855-3.855v-22.15a3.854,3.854,0,0,1,3.855-3.854H701.8a3.854,3.854,0,0,1,3.855,3.854v22.15A3.854,3.854,0,0,1,701.806,705.929Z" transform="translate(-675.724 -675.994)" fill="url(#linear-gradient)"/>
      <path id="Path_3032" data-name="Path 3032" d="M701.382,705.581H679.231a3.935,3.935,0,0,1-3.931-3.93V679.5a3.935,3.935,0,0,1,3.931-3.931h22.15a3.935,3.935,0,0,1,3.93,3.931v22.15A3.935,3.935,0,0,1,701.382,705.581Zm-22.151-29.859a3.783,3.783,0,0,0-3.779,3.779v22.15a3.783,3.783,0,0,0,3.779,3.778h22.15a3.783,3.783,0,0,0,3.779-3.778V679.5a3.783,3.783,0,0,0-3.779-3.779Z" transform="translate(-675.3 -675.57)" fill="#0cacff"/>
    </g>
    <g id="Group_1612" data-name="Group 1612" transform="translate(18.676 102.516)">
      <path id="Path_3033" data-name="Path 3033" d="M149.984,705.929h-22.15a3.854,3.854,0,0,1-3.855-3.855v-22.15a3.854,3.854,0,0,1,3.855-3.854h22.15a3.854,3.854,0,0,1,3.855,3.854v22.15A3.854,3.854,0,0,1,149.984,705.929Z" transform="translate(-123.904 -675.994)" fill="url(#linear-gradient)"/>
      <path id="Path_3034" data-name="Path 3034" d="M149.56,705.581h-22.15a3.935,3.935,0,0,1-3.931-3.93V679.5a3.935,3.935,0,0,1,3.931-3.931h22.15a3.935,3.935,0,0,1,3.931,3.931v22.15A3.935,3.935,0,0,1,149.56,705.581Zm-22.15-29.859a3.783,3.783,0,0,0-3.779,3.779v22.15a3.783,3.783,0,0,0,3.779,3.778h22.15a3.783,3.783,0,0,0,3.779-3.778V679.5a3.783,3.783,0,0,0-3.779-3.779Z" transform="translate(-123.48 -675.57)" fill="#0cacff"/>
    </g>
    <g id="Group_1613" data-name="Group 1613" transform="translate(60.417 61.412)">
      <path id="Path_3035" data-name="Path 3035" d="M424.816,435.289H402.665a3.854,3.854,0,0,1-3.855-3.855v-22.15a3.854,3.854,0,0,1,3.855-3.855h22.15a3.854,3.854,0,0,1,3.855,3.855v22.15A3.854,3.854,0,0,1,424.816,435.289Z" transform="translate(-398.734 -405.354)" fill="url(#linear-gradient)"/>
      <path id="Path_3036" data-name="Path 3036" d="M424.392,434.941H402.241a3.935,3.935,0,0,1-3.931-3.931v-22.15a3.935,3.935,0,0,1,3.931-3.931h22.15a3.935,3.935,0,0,1,3.931,3.931v22.15A3.935,3.935,0,0,1,424.392,434.941Zm-22.151-29.858a3.783,3.783,0,0,0-3.779,3.779v22.15a3.783,3.783,0,0,0,3.779,3.779h22.15a3.783,3.783,0,0,0,3.779-3.779V408.861a3.783,3.783,0,0,0-3.779-3.779h-22.15Z" transform="translate(-398.31 -404.93)" fill="#0cacff"/>
    </g>
    <path id="Path_3037" data-name="Path 3037" d="M701.806,434.789H679.655a3.854,3.854,0,0,1-3.855-3.855v-22.15a3.854,3.854,0,0,1,3.855-3.855H701.8a3.854,3.854,0,0,1,3.855,3.855v22.15A3.854,3.854,0,0,1,701.806,434.789Z" transform="translate(-573.239 -343.518)" fill="#fff"/>
    <path id="Path_3038" data-name="Path 3038" d="M700.109,433.4H677.958a4.163,4.163,0,0,1-4.158-4.159v-22.15a4.163,4.163,0,0,1,4.158-4.158h22.15a4.163,4.163,0,0,1,4.159,4.158v22.15A4.163,4.163,0,0,1,700.109,433.4Zm-22.151-29.859a3.555,3.555,0,0,0-3.551,3.551v22.15a3.555,3.555,0,0,0,3.551,3.551h22.15a3.555,3.555,0,0,0,3.551-3.551v-22.15a3.555,3.555,0,0,0-3.551-3.551Z" transform="translate(-571.542 -341.822)" fill="#0057dc"/>
    <path id="Path_3039" data-name="Path 3039" d="M425.076,705.728H402.7a3.893,3.893,0,0,1-3.893-3.893V679.463a3.893,3.893,0,0,1,3.893-3.893h22.372a3.893,3.893,0,0,1,3.893,3.893v22.372A3.892,3.892,0,0,1,425.076,705.728Z" transform="translate(-338.467 -573.203)" fill="#fff"/>
    <path id="Path_3040" data-name="Path 3040" d="M423.12,704.037H400.968a4.163,4.163,0,0,1-4.158-4.158v-22.15a4.163,4.163,0,0,1,4.158-4.159h22.15a4.163,4.163,0,0,1,4.158,4.159v22.15A4.162,4.162,0,0,1,423.12,704.037Zm-22.151-29.859a3.555,3.555,0,0,0-3.551,3.551v22.15a3.555,3.555,0,0,0,3.551,3.551h22.15a3.555,3.555,0,0,0,3.551-3.551v-22.15a3.555,3.555,0,0,0-3.551-3.551Z" transform="translate(-336.621 -571.358)" fill="#0057dc"/>
    <path id="Path_3041" data-name="Path 3041" d="M835.127,78.626h-4.81a1.4,1.4,0,0,1-1.4-1.4V72.417a1.4,1.4,0,0,1,1.4-1.4h4.81a1.4,1.4,0,0,1,1.4,1.4v4.81A1.4,1.4,0,0,1,835.127,78.626Zm-4.81-7.556a1.349,1.349,0,0,0-1.347,1.347v4.81a1.349,1.349,0,0,0,1.347,1.347h4.81a1.349,1.349,0,0,0,1.347-1.347v-4.81a1.349,1.349,0,0,0-1.347-1.347Z" transform="translate(-703.103 -60.322)" fill="#0c1011"/>
    <path id="Path_3042" data-name="Path 3042" d="M779.977,78.626h-4.81a1.4,1.4,0,0,1-1.4-1.4V72.417a1.4,1.4,0,0,1,1.4-1.4h4.81a1.4,1.4,0,0,1,1.4,1.4v4.81A1.4,1.4,0,0,1,779.977,78.626Zm-4.81-7.556a1.349,1.349,0,0,0-1.347,1.347v4.81a1.349,1.349,0,0,0,1.347,1.347h4.81a1.349,1.349,0,0,0,1.347-1.347v-4.81a1.349,1.349,0,0,0-1.347-1.347Z" transform="translate(-656.329 -60.322)" fill="#0c1011"/>
    <path id="Path_3043" data-name="Path 3043" d="M724.827,78.626h-4.81a1.4,1.4,0,0,1-1.4-1.4V72.417a1.4,1.4,0,0,1,1.4-1.4h4.81a1.4,1.4,0,0,1,1.4,1.4v4.81A1.4,1.4,0,0,1,724.827,78.626Zm-4.81-7.556a1.349,1.349,0,0,0-1.347,1.347v4.81a1.349,1.349,0,0,0,1.347,1.347h4.81a1.349,1.349,0,0,0,1.347-1.347v-4.81a1.349,1.349,0,0,0-1.347-1.347Z" transform="translate(-609.555 -60.322)" fill="#0c1011"/>
    <path id="Path_3044" data-name="Path 3044" d="M669.687,78.626h-4.81a1.4,1.4,0,0,1-1.4-1.4V72.417a1.4,1.4,0,0,1,1.4-1.4h4.81a1.4,1.4,0,0,1,1.4,1.4v4.81A1.4,1.4,0,0,1,669.687,78.626Zm-4.811-7.556a1.349,1.349,0,0,0-1.347,1.347v4.81a1.349,1.349,0,0,0,1.347,1.347h4.81a1.349,1.349,0,0,0,1.347-1.347v-4.81a1.349,1.349,0,0,0-1.347-1.347Z" transform="translate(-562.79 -60.322)" fill="#0c1011"/>
    <path id="Path_3045" data-name="Path 3045" d="M614.537,78.626h-4.81a1.4,1.4,0,0,1-1.4-1.4V72.417a1.4,1.4,0,0,1,1.4-1.4h4.81a1.4,1.4,0,0,1,1.4,1.4v4.81A1.4,1.4,0,0,1,614.537,78.626Zm-4.812-7.556a1.349,1.349,0,0,0-1.347,1.347v4.81a1.349,1.349,0,0,0,1.347,1.347h4.81a1.349,1.349,0,0,0,1.347-1.347v-4.81a1.349,1.349,0,0,0-1.347-1.347Z" transform="translate(-516.016 -60.322)" fill="#0c1011"/>
    <path id="Path_3046" data-name="Path 3046" d="M614.537,133.9h-4.81a1.4,1.4,0,0,1-1.4-1.4V127.7a1.4,1.4,0,0,1,1.4-1.4h4.81a1.4,1.4,0,0,1,1.4,1.4v4.81A1.4,1.4,0,0,1,614.537,133.9Zm-4.812-7.554a1.349,1.349,0,0,0-1.347,1.347v4.81a1.349,1.349,0,0,0,1.347,1.347h4.81a1.349,1.349,0,0,0,1.347-1.347V127.7a1.349,1.349,0,0,0-1.347-1.347Z" transform="translate(-516.016 -107.206)" fill="#0c1011"/>
    <path id="Path_3047" data-name="Path 3047" d="M614.537,188.035h-4.81a1.4,1.4,0,0,1-1.4-1.4v-4.81a1.4,1.4,0,0,1,1.4-1.4h4.81a1.4,1.4,0,0,1,1.4,1.4v4.81A1.4,1.4,0,0,1,614.537,188.035Zm-4.812-7.554a1.349,1.349,0,0,0-1.347,1.347v4.81a1.349,1.349,0,0,0,1.347,1.347h4.81a1.349,1.349,0,0,0,1.347-1.347v-4.81a1.349,1.349,0,0,0-1.347-1.347Z" transform="translate(-516.016 -153.115)" fill="#0c1011"/>
    <path id="Path_3048" data-name="Path 3048" d="M614.537,242.165h-4.81a1.4,1.4,0,0,1-1.4-1.4v-4.81a1.4,1.4,0,0,1,1.4-1.4h4.81a1.4,1.4,0,0,1,1.4,1.4v4.81A1.4,1.4,0,0,1,614.537,242.165Zm-4.812-7.554a1.349,1.349,0,0,0-1.347,1.347v4.81a1.349,1.349,0,0,0,1.347,1.347h4.81a1.349,1.349,0,0,0,1.347-1.347v-4.81a1.349,1.349,0,0,0-1.347-1.347Z" transform="translate(-516.016 -199.024)" fill="#0c1011"/>
    <path id="Path_3049" data-name="Path 3049" d="M614.537,296.294h-4.81a1.4,1.4,0,0,1-1.4-1.4v-4.81a1.4,1.4,0,0,1,1.4-1.4h4.81a1.4,1.4,0,0,1,1.4,1.4v4.81A1.4,1.4,0,0,1,614.537,296.294Zm-4.812-7.556a1.349,1.349,0,0,0-1.347,1.347v4.81a1.349,1.349,0,0,0,1.347,1.347h4.81a1.349,1.349,0,0,0,1.347-1.347v-4.81a1.349,1.349,0,0,0-1.347-1.347Z" transform="translate(-516.016 -244.932)" fill="#0c1011"/>
    <path id="Path_3050" data-name="Path 3050" d="M614.537,350.414h-4.81a1.4,1.4,0,0,1-1.4-1.4v-4.81a1.4,1.4,0,0,1,1.4-1.4h4.81a1.4,1.4,0,0,1,1.4,1.4v4.81A1.4,1.4,0,0,1,614.537,350.414Zm-4.812-7.554a1.349,1.349,0,0,0-1.347,1.347v4.81a1.349,1.349,0,0,0,1.347,1.347h4.81a1.349,1.349,0,0,0,1.347-1.347v-4.81a1.349,1.349,0,0,0-1.347-1.347Z" transform="translate(-516.016 -290.833)" fill="#0c1011"/>
    <path id="Path_3051" data-name="Path 3051" d="M835.127,351.7h-4.81a1.4,1.4,0,0,1-1.4-1.4V345.5a1.4,1.4,0,0,1,1.4-1.4h4.81a1.4,1.4,0,0,1,1.4,1.4v4.81A1.4,1.4,0,0,1,835.127,351.7Zm-4.81-7.554a1.349,1.349,0,0,0-1.347,1.347v4.81a1.349,1.349,0,0,0,1.347,1.347h4.81a1.349,1.349,0,0,0,1.347-1.347V345.5a1.349,1.349,0,0,0-1.347-1.347Z" transform="translate(-703.103 -291.927)" fill="#0c1011"/>
    <path id="Path_3052" data-name="Path 3052" d="M779.977,351.7h-4.81a1.4,1.4,0,0,1-1.4-1.4V345.5a1.4,1.4,0,0,1,1.4-1.4h4.81a1.4,1.4,0,0,1,1.4,1.4v4.81A1.4,1.4,0,0,1,779.977,351.7Zm-4.81-7.554a1.349,1.349,0,0,0-1.347,1.347v4.81a1.349,1.349,0,0,0,1.347,1.347h4.81a1.349,1.349,0,0,0,1.347-1.347V345.5a1.349,1.349,0,0,0-1.347-1.347Z" transform="translate(-656.329 -291.927)" fill="#0c1011"/>
    <path id="Path_3053" data-name="Path 3053" d="M724.827,351.7h-4.81a1.4,1.4,0,0,1-1.4-1.4V345.5a1.4,1.4,0,0,1,1.4-1.4h4.81a1.4,1.4,0,0,1,1.4,1.4v4.81A1.4,1.4,0,0,1,724.827,351.7Zm-4.81-7.554a1.349,1.349,0,0,0-1.347,1.347v4.81a1.349,1.349,0,0,0,1.347,1.347h4.81a1.349,1.349,0,0,0,1.347-1.347V345.5a1.349,1.349,0,0,0-1.347-1.347Z" transform="translate(-609.555 -291.927)" fill="#0c1011"/>
    <path id="Path_3054" data-name="Path 3054" d="M669.687,351.7h-4.81a1.4,1.4,0,0,1-1.4-1.4V345.5a1.4,1.4,0,0,1,1.4-1.4h4.81a1.4,1.4,0,0,1,1.4,1.4v4.81A1.4,1.4,0,0,1,669.687,351.7Zm-4.811-7.554a1.349,1.349,0,0,0-1.347,1.347v4.81a1.349,1.349,0,0,0,1.347,1.347h4.81a1.349,1.349,0,0,0,1.347-1.347V345.5a1.349,1.349,0,0,0-1.347-1.347Z" transform="translate(-562.79 -291.927)" fill="#0c1011"/>
    <path id="Path_3055" data-name="Path 3055" d="M614.537,404.544h-4.81a1.4,1.4,0,0,1-1.4-1.4v-4.81a1.4,1.4,0,0,1,1.4-1.4h4.81a1.4,1.4,0,0,1,1.4,1.4v4.81A1.4,1.4,0,0,1,614.537,404.544Zm-4.812-7.554a1.349,1.349,0,0,0-1.347,1.347v4.81a1.349,1.349,0,0,0,1.347,1.347h4.81a1.349,1.349,0,0,0,1.347-1.347v-4.81a1.349,1.349,0,0,0-1.347-1.347Z" transform="translate(-516.016 -336.742)" fill="#0c1011"/>
    <path id="Path_3056" data-name="Path 3056" d="M614.537,458.675h-4.81a1.4,1.4,0,0,1-1.4-1.4v-4.81a1.4,1.4,0,0,1,1.4-1.4h4.81a1.4,1.4,0,0,1,1.4,1.4v4.81A1.4,1.4,0,0,1,614.537,458.675Zm-4.812-7.554a1.349,1.349,0,0,0-1.347,1.347v4.81a1.349,1.349,0,0,0,1.347,1.347h4.81a1.349,1.349,0,0,0,1.347-1.347v-4.81a1.349,1.349,0,0,0-1.347-1.347Z" transform="translate(-516.016 -382.651)" fill="#0c1011"/>
    <path id="Path_3057" data-name="Path 3057" d="M614.537,512.8h-4.81a1.4,1.4,0,0,1-1.4-1.4V506.6a1.4,1.4,0,0,1,1.4-1.4h4.81a1.4,1.4,0,0,1,1.4,1.4v4.81A1.4,1.4,0,0,1,614.537,512.8Zm-4.812-7.556a1.349,1.349,0,0,0-1.347,1.347v4.81a1.349,1.349,0,0,0,1.347,1.347h4.81a1.349,1.349,0,0,0,1.347-1.347V506.6a1.349,1.349,0,0,0-1.347-1.347Z" transform="translate(-516.016 -428.56)" fill="#0c1011"/>
    <path id="Path_3058" data-name="Path 3058" d="M614.537,566.924h-4.81a1.4,1.4,0,0,1-1.4-1.4v-4.81a1.4,1.4,0,0,1,1.4-1.4h4.81a1.4,1.4,0,0,1,1.4,1.4v4.81A1.4,1.4,0,0,1,614.537,566.924Zm-4.812-7.554a1.349,1.349,0,0,0-1.347,1.347v4.81a1.349,1.349,0,0,0,1.347,1.347h4.81a1.349,1.349,0,0,0,1.347-1.347v-4.81a1.349,1.349,0,0,0-1.347-1.347Z" transform="translate(-516.016 -474.46)" fill="#0c1011"/>
    <path id="Path_3059" data-name="Path 3059" d="M614.537,621.054h-4.81a1.4,1.4,0,0,1-1.4-1.4v-4.81a1.4,1.4,0,0,1,1.4-1.4h4.81a1.4,1.4,0,0,1,1.4,1.4v4.81A1.4,1.4,0,0,1,614.537,621.054Zm-4.812-7.554a1.349,1.349,0,0,0-1.347,1.347v4.81A1.349,1.349,0,0,0,609.726,621h4.81a1.349,1.349,0,0,0,1.347-1.347v-4.81a1.349,1.349,0,0,0-1.347-1.347Z" transform="translate(-516.016 -520.369)" fill="#0c1011"/>
    <path id="Path_3060" data-name="Path 3060" d="M835.127,622.345h-4.81a1.4,1.4,0,0,1-1.4-1.4v-4.81a1.4,1.4,0,0,1,1.4-1.4h4.81a1.4,1.4,0,0,1,1.4,1.4v4.81A1.4,1.4,0,0,1,835.127,622.345Zm-4.81-7.554a1.349,1.349,0,0,0-1.347,1.347v4.81a1.349,1.349,0,0,0,1.347,1.347h4.81a1.349,1.349,0,0,0,1.347-1.347v-4.81a1.349,1.349,0,0,0-1.347-1.347Z" transform="translate(-703.103 -521.463)" fill="#0c1011"/>
    <path id="Path_3061" data-name="Path 3061" d="M779.977,622.345h-4.81a1.4,1.4,0,0,1-1.4-1.4v-4.81a1.4,1.4,0,0,1,1.4-1.4h4.81a1.4,1.4,0,0,1,1.4,1.4v4.81A1.4,1.4,0,0,1,779.977,622.345Zm-4.81-7.554a1.349,1.349,0,0,0-1.347,1.347v4.81a1.349,1.349,0,0,0,1.347,1.347h4.81a1.349,1.349,0,0,0,1.347-1.347v-4.81a1.349,1.349,0,0,0-1.347-1.347Z" transform="translate(-656.329 -521.463)" fill="#0c1011"/>
    <path id="Path_3062" data-name="Path 3062" d="M724.827,622.345h-4.81a1.4,1.4,0,0,1-1.4-1.4v-4.81a1.4,1.4,0,0,1,1.4-1.4h4.81a1.4,1.4,0,0,1,1.4,1.4v4.81A1.4,1.4,0,0,1,724.827,622.345Zm-4.81-7.554a1.349,1.349,0,0,0-1.347,1.347v4.81a1.349,1.349,0,0,0,1.347,1.347h4.81a1.349,1.349,0,0,0,1.347-1.347v-4.81a1.349,1.349,0,0,0-1.347-1.347Z" transform="translate(-609.555 -521.463)" fill="#0c1011"/>
    <path id="Path_3063" data-name="Path 3063" d="M669.687,622.345h-4.81a1.4,1.4,0,0,1-1.4-1.4v-4.81a1.4,1.4,0,0,1,1.4-1.4h4.81a1.4,1.4,0,0,1,1.4,1.4v4.81A1.4,1.4,0,0,1,669.687,622.345Zm-4.811-7.554a1.349,1.349,0,0,0-1.347,1.347v4.81a1.349,1.349,0,0,0,1.347,1.347h4.81a1.349,1.349,0,0,0,1.347-1.347v-4.81a1.349,1.349,0,0,0-1.347-1.347Z" transform="translate(-562.79 -521.463)" fill="#0c1011"/>
    <path id="Path_3064" data-name="Path 3064" d="M614.537,675.185h-4.81a1.4,1.4,0,0,1-1.4-1.4v-4.81a1.4,1.4,0,0,1,1.4-1.4h4.81a1.4,1.4,0,0,1,1.4,1.4v4.81A1.4,1.4,0,0,1,614.537,675.185Zm-4.812-7.554a1.349,1.349,0,0,0-1.347,1.347v4.81a1.349,1.349,0,0,0,1.347,1.347h4.81a1.349,1.349,0,0,0,1.347-1.347v-4.81a1.349,1.349,0,0,0-1.347-1.347Z" transform="translate(-516.016 -566.278)" fill="#0c1011"/>
    <path id="Path_3065" data-name="Path 3065" d="M614.537,729.306h-4.81a1.4,1.4,0,0,1-1.4-1.4V723.1a1.4,1.4,0,0,1,1.4-1.4h4.81a1.4,1.4,0,0,1,1.4,1.4v4.81A1.4,1.4,0,0,1,614.537,729.306Zm-4.812-7.554a1.349,1.349,0,0,0-1.347,1.347v4.81a1.349,1.349,0,0,0,1.347,1.347h4.81a1.349,1.349,0,0,0,1.347-1.347V723.1a1.349,1.349,0,0,0-1.347-1.347h-4.81Z" transform="translate(-516.016 -612.178)" fill="#0c1011"/>
    <path id="Path_3066" data-name="Path 3066" d="M614.537,783.434h-4.81a1.4,1.4,0,0,1-1.4-1.4v-4.81a1.4,1.4,0,0,1,1.4-1.4h4.81a1.4,1.4,0,0,1,1.4,1.4v4.81A1.4,1.4,0,0,1,614.537,783.434Zm-4.812-7.554a1.349,1.349,0,0,0-1.347,1.347v4.81a1.349,1.349,0,0,0,1.347,1.347h4.81a1.349,1.349,0,0,0,1.347-1.347v-4.81a1.349,1.349,0,0,0-1.347-1.347Z" transform="translate(-516.016 -658.087)" fill="#0c1011"/>
    <path id="Path_3067" data-name="Path 3067" d="M614.537,837.565h-4.81a1.4,1.4,0,0,1-1.4-1.4v-4.81a1.4,1.4,0,0,1,1.4-1.4h4.81a1.4,1.4,0,0,1,1.4,1.4v4.81A1.4,1.4,0,0,1,614.537,837.565Zm-4.812-7.554a1.349,1.349,0,0,0-1.347,1.347v4.81a1.349,1.349,0,0,0,1.347,1.347h4.81a1.349,1.349,0,0,0,1.347-1.347v-4.81a1.349,1.349,0,0,0-1.347-1.347Z" transform="translate(-516.016 -703.996)" fill="#0c1011"/>
    <path id="Path_3068" data-name="Path 3068" d="M338.787,350.414h-4.81a1.4,1.4,0,0,1-1.4-1.4v-4.81a1.4,1.4,0,0,1,1.4-1.4h4.81a1.4,1.4,0,0,1,1.4,1.4v4.81A1.4,1.4,0,0,1,338.787,350.414Zm-4.81-7.554a1.349,1.349,0,0,0-1.347,1.347v4.81a1.349,1.349,0,0,0,1.347,1.347h4.81a1.349,1.349,0,0,0,1.347-1.347v-4.81a1.349,1.349,0,0,0-1.347-1.347Z" transform="translate(-282.146 -290.833)" fill="#0c1011"/>
    <path id="Path_3069" data-name="Path 3069" d="M559.387,351.7h-4.81a1.4,1.4,0,0,1-1.4-1.4V345.5a1.4,1.4,0,0,1,1.4-1.4h4.81a1.4,1.4,0,0,1,1.4,1.4v4.81A1.4,1.4,0,0,1,559.387,351.7Zm-4.81-7.554a1.349,1.349,0,0,0-1.347,1.347v4.81a1.349,1.349,0,0,0,1.347,1.347h4.81a1.349,1.349,0,0,0,1.347-1.347V345.5a1.349,1.349,0,0,0-1.347-1.347Z" transform="translate(-469.242 -291.927)" fill="#0c1011"/>
    <path id="Path_3070" data-name="Path 3070" d="M504.237,351.7h-4.81a1.4,1.4,0,0,1-1.4-1.4V345.5a1.4,1.4,0,0,1,1.4-1.4h4.81a1.4,1.4,0,0,1,1.4,1.4v4.81A1.4,1.4,0,0,1,504.237,351.7Zm-4.81-7.554a1.349,1.349,0,0,0-1.347,1.347v4.81a1.349,1.349,0,0,0,1.347,1.347h4.81a1.349,1.349,0,0,0,1.347-1.347V345.5a1.349,1.349,0,0,0-1.347-1.347Z" transform="translate(-422.468 -291.927)" fill="#0c1011"/>
    <path id="Path_3071" data-name="Path 3071" d="M449.087,351.7h-4.81a1.4,1.4,0,0,1-1.4-1.4V345.5a1.4,1.4,0,0,1,1.4-1.4h4.81a1.4,1.4,0,0,1,1.4,1.4v4.81A1.4,1.4,0,0,1,449.087,351.7Zm-4.81-7.554a1.349,1.349,0,0,0-1.347,1.347v4.81a1.349,1.349,0,0,0,1.347,1.347h4.81a1.349,1.349,0,0,0,1.347-1.347V345.5a1.349,1.349,0,0,0-1.347-1.347Z" transform="translate(-375.694 -291.927)" fill="#0c1011"/>
    <path id="Path_3072" data-name="Path 3072" d="M393.937,351.7h-4.81a1.4,1.4,0,0,1-1.4-1.4V345.5a1.4,1.4,0,0,1,1.4-1.4h4.81a1.4,1.4,0,0,1,1.4,1.4v4.81A1.4,1.4,0,0,1,393.937,351.7Zm-4.81-7.554a1.349,1.349,0,0,0-1.347,1.347v4.81a1.349,1.349,0,0,0,1.347,1.347h4.81a1.349,1.349,0,0,0,1.347-1.347V345.5a1.349,1.349,0,0,0-1.347-1.347Z" transform="translate(-328.92 -291.927)" fill="#0c1011"/>
    <path id="Path_3073" data-name="Path 3073" d="M338.787,404.544h-4.81a1.4,1.4,0,0,1-1.4-1.4v-4.81a1.4,1.4,0,0,1,1.4-1.4h4.81a1.4,1.4,0,0,1,1.4,1.4v4.81A1.4,1.4,0,0,1,338.787,404.544Zm-4.81-7.554a1.349,1.349,0,0,0-1.347,1.347v4.81a1.349,1.349,0,0,0,1.347,1.347h4.81a1.349,1.349,0,0,0,1.347-1.347v-4.81a1.349,1.349,0,0,0-1.347-1.347Z" transform="translate(-282.146 -336.742)" fill="#0c1011"/>
    <path id="Path_3074" data-name="Path 3074" d="M338.787,458.675h-4.81a1.4,1.4,0,0,1-1.4-1.4v-4.81a1.4,1.4,0,0,1,1.4-1.4h4.81a1.4,1.4,0,0,1,1.4,1.4v4.81A1.4,1.4,0,0,1,338.787,458.675Zm-4.81-7.554a1.349,1.349,0,0,0-1.347,1.347v4.81a1.349,1.349,0,0,0,1.347,1.347h4.81a1.349,1.349,0,0,0,1.347-1.347v-4.81a1.349,1.349,0,0,0-1.347-1.347Z" transform="translate(-282.146 -382.651)" fill="#0c1011"/>
    <path id="Path_3075" data-name="Path 3075" d="M338.787,512.8h-4.81a1.4,1.4,0,0,1-1.4-1.4V506.6a1.4,1.4,0,0,1,1.4-1.4h4.81a1.4,1.4,0,0,1,1.4,1.4v4.81A1.4,1.4,0,0,1,338.787,512.8Zm-4.81-7.556a1.349,1.349,0,0,0-1.347,1.347v4.81a1.349,1.349,0,0,0,1.347,1.347h4.81a1.349,1.349,0,0,0,1.347-1.347V506.6a1.349,1.349,0,0,0-1.347-1.347Z" transform="translate(-282.146 -428.56)" fill="#0c1011"/>
    <path id="Path_3076" data-name="Path 3076" d="M338.787,566.924h-4.81a1.4,1.4,0,0,1-1.4-1.4v-4.81a1.4,1.4,0,0,1,1.4-1.4h4.81a1.4,1.4,0,0,1,1.4,1.4v4.81A1.4,1.4,0,0,1,338.787,566.924Zm-4.81-7.554a1.349,1.349,0,0,0-1.347,1.347v4.81a1.349,1.349,0,0,0,1.347,1.347h4.81a1.349,1.349,0,0,0,1.347-1.347v-4.81a1.349,1.349,0,0,0-1.347-1.347Z" transform="translate(-282.146 -474.46)" fill="#0c1011"/>
    <path id="Path_3077" data-name="Path 3077" d="M338.787,621.054h-4.81a1.4,1.4,0,0,1-1.4-1.4v-4.81a1.4,1.4,0,0,1,1.4-1.4h4.81a1.4,1.4,0,0,1,1.4,1.4v4.81A1.4,1.4,0,0,1,338.787,621.054Zm-4.81-7.554a1.349,1.349,0,0,0-1.347,1.347v4.81A1.349,1.349,0,0,0,333.977,621h4.81a1.349,1.349,0,0,0,1.347-1.347v-4.81a1.349,1.349,0,0,0-1.347-1.347Z" transform="translate(-282.146 -520.369)" fill="#0c1011"/>
    <path id="Path_3078" data-name="Path 3078" d="M559.387,622.345h-4.81a1.4,1.4,0,0,1-1.4-1.4v-4.81a1.4,1.4,0,0,1,1.4-1.4h4.81a1.4,1.4,0,0,1,1.4,1.4v4.81A1.4,1.4,0,0,1,559.387,622.345Zm-4.81-7.554a1.349,1.349,0,0,0-1.347,1.347v4.81a1.349,1.349,0,0,0,1.347,1.347h4.81a1.349,1.349,0,0,0,1.347-1.347v-4.81a1.349,1.349,0,0,0-1.347-1.347Z" transform="translate(-469.242 -521.463)" fill="#0c1011"/>
    <path id="Path_3079" data-name="Path 3079" d="M504.237,622.345h-4.81a1.4,1.4,0,0,1-1.4-1.4v-4.81a1.4,1.4,0,0,1,1.4-1.4h4.81a1.4,1.4,0,0,1,1.4,1.4v4.81A1.4,1.4,0,0,1,504.237,622.345Zm-4.81-7.554a1.349,1.349,0,0,0-1.347,1.347v4.81a1.349,1.349,0,0,0,1.347,1.347h4.81a1.349,1.349,0,0,0,1.347-1.347v-4.81a1.349,1.349,0,0,0-1.347-1.347Z" transform="translate(-422.468 -521.463)" fill="#0c1011"/>
    <path id="Path_3080" data-name="Path 3080" d="M449.087,622.345h-4.81a1.4,1.4,0,0,1-1.4-1.4v-4.81a1.4,1.4,0,0,1,1.4-1.4h4.81a1.4,1.4,0,0,1,1.4,1.4v4.81A1.4,1.4,0,0,1,449.087,622.345Zm-4.81-7.554a1.349,1.349,0,0,0-1.347,1.347v4.81a1.349,1.349,0,0,0,1.347,1.347h4.81a1.349,1.349,0,0,0,1.347-1.347v-4.81a1.349,1.349,0,0,0-1.347-1.347Z" transform="translate(-375.694 -521.463)" fill="#0c1011"/>
    <path id="Path_3081" data-name="Path 3081" d="M393.937,622.345h-4.81a1.4,1.4,0,0,1-1.4-1.4v-4.81a1.4,1.4,0,0,1,1.4-1.4h4.81a1.4,1.4,0,0,1,1.4,1.4v4.81A1.4,1.4,0,0,1,393.937,622.345Zm-4.81-7.554a1.349,1.349,0,0,0-1.347,1.347v4.81a1.349,1.349,0,0,0,1.347,1.347h4.81a1.349,1.349,0,0,0,1.347-1.347v-4.81a1.349,1.349,0,0,0-1.347-1.347Z" transform="translate(-328.92 -521.463)" fill="#0c1011"/>
    <path id="Path_3082" data-name="Path 3082" d="M338.787,675.185h-4.81a1.4,1.4,0,0,1-1.4-1.4v-4.81a1.4,1.4,0,0,1,1.4-1.4h4.81a1.4,1.4,0,0,1,1.4,1.4v4.81A1.4,1.4,0,0,1,338.787,675.185Zm-4.81-7.554a1.349,1.349,0,0,0-1.347,1.347v4.81a1.349,1.349,0,0,0,1.347,1.347h4.81a1.349,1.349,0,0,0,1.347-1.347v-4.81a1.349,1.349,0,0,0-1.347-1.347Z" transform="translate(-282.146 -566.278)" fill="#0c1011"/>
    <path id="Path_3083" data-name="Path 3083" d="M338.787,729.306h-4.81a1.4,1.4,0,0,1-1.4-1.4V723.1a1.4,1.4,0,0,1,1.4-1.4h4.81a1.4,1.4,0,0,1,1.4,1.4v4.81A1.4,1.4,0,0,1,338.787,729.306Zm-4.81-7.554a1.349,1.349,0,0,0-1.347,1.347v4.81a1.349,1.349,0,0,0,1.347,1.347h4.81a1.349,1.349,0,0,0,1.347-1.347V723.1a1.349,1.349,0,0,0-1.347-1.347h-4.81Z" transform="translate(-282.146 -612.178)" fill="#0c1011"/>
    <path id="Path_3084" data-name="Path 3084" d="M338.787,783.434h-4.81a1.4,1.4,0,0,1-1.4-1.4v-4.81a1.4,1.4,0,0,1,1.4-1.4h4.81a1.4,1.4,0,0,1,1.4,1.4v4.81A1.4,1.4,0,0,1,338.787,783.434Zm-4.81-7.554a1.349,1.349,0,0,0-1.347,1.347v4.81a1.349,1.349,0,0,0,1.347,1.347h4.81a1.349,1.349,0,0,0,1.347-1.347v-4.81a1.349,1.349,0,0,0-1.347-1.347Z" transform="translate(-282.146 -658.087)" fill="#0c1011"/>
    <path id="Path_3085" data-name="Path 3085" d="M338.787,837.565h-4.81a1.4,1.4,0,0,1-1.4-1.4v-4.81a1.4,1.4,0,0,1,1.4-1.4h4.81a1.4,1.4,0,0,1,1.4,1.4v4.81A1.4,1.4,0,0,1,338.787,837.565Zm-4.81-7.554a1.349,1.349,0,0,0-1.347,1.347v4.81a1.349,1.349,0,0,0,1.347,1.347h4.81a1.349,1.349,0,0,0,1.347-1.347v-4.81a1.349,1.349,0,0,0-1.347-1.347Z" transform="translate(-282.146 -703.996)" fill="#0c1011"/>
    <path id="Path_3086" data-name="Path 3086" d="M63.039,621.054H58.227a1.4,1.4,0,0,1-1.4-1.4v-4.81a1.4,1.4,0,0,1,1.4-1.4h4.81a1.4,1.4,0,0,1,1.4,1.4v4.81A1.4,1.4,0,0,1,63.039,621.054ZM58.227,613.5a1.349,1.349,0,0,0-1.347,1.347v4.81A1.349,1.349,0,0,0,58.227,621h4.81a1.349,1.349,0,0,0,1.347-1.347v-4.81a1.349,1.349,0,0,0-1.347-1.347Z" transform="translate(-48.276 -520.369)" fill="#0c1011"/>
    <path id="Path_3087" data-name="Path 3087" d="M283.637,622.345h-4.81a1.4,1.4,0,0,1-1.4-1.4v-4.81a1.4,1.4,0,0,1,1.4-1.4h4.81a1.4,1.4,0,0,1,1.4,1.4v4.81A1.4,1.4,0,0,1,283.637,622.345Zm-4.81-7.554a1.349,1.349,0,0,0-1.347,1.347v4.81a1.349,1.349,0,0,0,1.347,1.347h4.81a1.349,1.349,0,0,0,1.347-1.347v-4.81a1.349,1.349,0,0,0-1.347-1.347Z" transform="translate(-235.372 -521.463)" fill="#0c1011"/>
    <path id="Path_3088" data-name="Path 3088" d="M228.487,622.345h-4.81a1.4,1.4,0,0,1-1.4-1.4v-4.81a1.4,1.4,0,0,1,1.4-1.4h4.81a1.4,1.4,0,0,1,1.4,1.4v4.81A1.4,1.4,0,0,1,228.487,622.345Zm-4.81-7.554a1.349,1.349,0,0,0-1.347,1.347v4.81a1.349,1.349,0,0,0,1.347,1.347h4.81a1.349,1.349,0,0,0,1.347-1.347v-4.81a1.349,1.349,0,0,0-1.347-1.347Z" transform="translate(-188.598 -521.463)" fill="#0c1011"/>
    <path id="Path_3089" data-name="Path 3089" d="M173.347,622.345h-4.81a1.4,1.4,0,0,1-1.4-1.4v-4.81a1.4,1.4,0,0,1,1.4-1.4h4.81a1.4,1.4,0,0,1,1.4,1.4v4.81A1.4,1.4,0,0,1,173.347,622.345Zm-4.812-7.554a1.349,1.349,0,0,0-1.347,1.347v4.81a1.349,1.349,0,0,0,1.347,1.347h4.81a1.349,1.349,0,0,0,1.347-1.347v-4.81a1.349,1.349,0,0,0-1.347-1.347Z" transform="translate(-141.833 -521.463)" fill="#0c1011"/>
    <path id="Path_3090" data-name="Path 3090" d="M118.2,622.345h-4.81a1.4,1.4,0,0,1-1.4-1.4v-4.81a1.4,1.4,0,0,1,1.4-1.4h4.81a1.4,1.4,0,0,1,1.4,1.4v4.81A1.4,1.4,0,0,1,118.2,622.345Zm-4.812-7.554a1.349,1.349,0,0,0-1.347,1.347v4.81a1.349,1.349,0,0,0,1.347,1.347h4.81a1.349,1.349,0,0,0,1.347-1.347v-4.81a1.349,1.349,0,0,0-1.347-1.347Z" transform="translate(-95.059 -521.463)" fill="#0c1011"/>
    <g id="Group_1630" data-name="Group 1630" transform="translate(8.554 134.185)">
      <g id="Group_1629" data-name="Group 1629" transform="translate(0.026 0.026)">
        <g id="Group_1614" data-name="Group 1614" transform="translate(83.76)">
          <path id="Path_3091" data-name="Path 3091" d="M614.682,891.813h-4.81a1.373,1.373,0,0,1-1.371-1.372v-4.81a1.373,1.373,0,0,1,1.371-1.371h4.81a1.373,1.373,0,0,1,1.371,1.371v4.81A1.373,1.373,0,0,1,614.682,891.813Zm-4.812-6.843a.663.663,0,0,0-.662.662v4.81a.663.663,0,0,0,.662.662h4.81a.663.663,0,0,0,.662-.662v-4.81a.663.663,0,0,0-.662-.662Z" transform="translate(-608.5 -884.26)" fill="#fff"/>
        </g>
        <g id="Group_1615" data-name="Group 1615" transform="translate(117.263 0.196)">
          <path id="Path_3092" data-name="Path 3092" d="M835.271,893.1h-4.81a1.373,1.373,0,0,1-1.371-1.372v-4.81a1.373,1.373,0,0,1,1.371-1.371h4.81a1.373,1.373,0,0,1,1.372,1.371v4.81A1.372,1.372,0,0,1,835.271,893.1Zm-4.81-6.844a.663.663,0,0,0-.662.662v4.81a.663.663,0,0,0,.662.662h4.81a.663.663,0,0,0,.662-.662v-4.81a.663.663,0,0,0-.662-.662Z" transform="translate(-829.09 -885.55)" fill="#fff"/>
        </g>
        <g id="Group_1616" data-name="Group 1616" transform="translate(108.887 0.196)">
          <path id="Path_3093" data-name="Path 3093" d="M780.121,893.1h-4.81a1.373,1.373,0,0,1-1.371-1.372v-4.81a1.373,1.373,0,0,1,1.371-1.371h4.81a1.373,1.373,0,0,1,1.372,1.371v4.81A1.371,1.371,0,0,1,780.121,893.1Zm-4.81-6.844a.663.663,0,0,0-.662.662v4.81a.663.663,0,0,0,.662.662h4.81a.663.663,0,0,0,.662-.662v-4.81a.663.663,0,0,0-.662-.662Z" transform="translate(-773.94 -885.55)" fill="#fff"/>
        </g>
        <g id="Group_1617" data-name="Group 1617" transform="translate(100.511 0.196)">
          <path id="Path_3094" data-name="Path 3094" d="M724.971,893.1h-4.81a1.373,1.373,0,0,1-1.371-1.372v-4.81a1.373,1.373,0,0,1,1.371-1.371h4.81a1.373,1.373,0,0,1,1.371,1.371v4.81A1.371,1.371,0,0,1,724.971,893.1Zm-4.81-6.844a.663.663,0,0,0-.662.662v4.81a.663.663,0,0,0,.662.662h4.81a.663.663,0,0,0,.662-.662v-4.81a.663.663,0,0,0-.662-.662Z" transform="translate(-718.79 -885.55)" fill="#fff"/>
        </g>
        <g id="Group_1618" data-name="Group 1618" transform="translate(92.136 0.196)">
          <path id="Path_3095" data-name="Path 3095" d="M669.831,893.1h-4.81a1.373,1.373,0,0,1-1.371-1.372v-4.81a1.373,1.373,0,0,1,1.371-1.371h4.81a1.373,1.373,0,0,1,1.371,1.371v4.81A1.373,1.373,0,0,1,669.831,893.1Zm-4.812-6.844a.663.663,0,0,0-.662.662v4.81a.663.663,0,0,0,.662.662h4.81a.663.663,0,0,0,.662-.662v-4.81a.663.663,0,0,0-.662-.662Z" transform="translate(-663.65 -885.55)" fill="#fff"/>
        </g>
        <g id="Group_1619" data-name="Group 1619" transform="translate(41.88)">
          <path id="Path_3096" data-name="Path 3096" d="M338.931,891.813h-4.81a1.373,1.373,0,0,1-1.371-1.372v-4.81a1.373,1.373,0,0,1,1.371-1.371h4.81a1.373,1.373,0,0,1,1.371,1.371v4.81A1.372,1.372,0,0,1,338.931,891.813Zm-4.81-6.843a.663.663,0,0,0-.662.662v4.81a.663.663,0,0,0,.662.662h4.81a.663.663,0,0,0,.662-.662v-4.81a.663.663,0,0,0-.662-.662Z" transform="translate(-332.75 -884.26)" fill="#fff"/>
        </g>
        <g id="Group_1620" data-name="Group 1620" transform="translate(75.384 0.196)">
          <path id="Path_3097" data-name="Path 3097" d="M559.531,893.1h-4.81a1.373,1.373,0,0,1-1.371-1.372v-4.81a1.373,1.373,0,0,1,1.371-1.371h4.81a1.373,1.373,0,0,1,1.371,1.371v4.81A1.373,1.373,0,0,1,559.531,893.1Zm-4.81-6.844a.663.663,0,0,0-.662.662v4.81a.663.663,0,0,0,.662.662h4.81a.663.663,0,0,0,.662-.662v-4.81a.663.663,0,0,0-.662-.662Z" transform="translate(-553.35 -885.55)" fill="#fff"/>
        </g>
        <g id="Group_1621" data-name="Group 1621" transform="translate(67.008 0.196)">
          <path id="Path_3098" data-name="Path 3098" d="M504.381,893.1h-4.81a1.373,1.373,0,0,1-1.371-1.372v-4.81a1.373,1.373,0,0,1,1.371-1.371h4.81a1.373,1.373,0,0,1,1.371,1.371v4.81A1.373,1.373,0,0,1,504.381,893.1Zm-4.81-6.844a.663.663,0,0,0-.662.662v4.81a.663.663,0,0,0,.662.662h4.81a.663.663,0,0,0,.662-.662v-4.81a.663.663,0,0,0-.662-.662Z" transform="translate(-498.2 -885.55)" fill="#fff"/>
        </g>
        <g id="Group_1622" data-name="Group 1622" transform="translate(58.632 0.196)">
          <path id="Path_3099" data-name="Path 3099" d="M449.231,893.1h-4.81a1.373,1.373,0,0,1-1.372-1.372v-4.81a1.373,1.373,0,0,1,1.372-1.371h4.81a1.373,1.373,0,0,1,1.371,1.371v4.81A1.373,1.373,0,0,1,449.231,893.1Zm-4.81-6.844a.663.663,0,0,0-.662.662v4.81a.663.663,0,0,0,.662.662h4.81a.663.663,0,0,0,.662-.662v-4.81a.663.663,0,0,0-.662-.662Z" transform="translate(-443.05 -885.55)" fill="#fff"/>
        </g>
        <g id="Group_1623" data-name="Group 1623" transform="translate(50.256 0.196)">
          <path id="Path_3100" data-name="Path 3100" d="M394.081,893.1h-4.81a1.373,1.373,0,0,1-1.371-1.372v-4.81a1.373,1.373,0,0,1,1.371-1.371h4.81a1.373,1.373,0,0,1,1.371,1.371v4.81A1.372,1.372,0,0,1,394.081,893.1Zm-4.81-6.844a.663.663,0,0,0-.662.662v4.81a.663.663,0,0,0,.662.662h4.81a.663.663,0,0,0,.662-.662v-4.81a.663.663,0,0,0-.662-.662Z" transform="translate(-387.9 -885.55)" fill="#fff"/>
        </g>
        <g id="Group_1624" data-name="Group 1624">
          <path id="Path_3101" data-name="Path 3101" d="M63.183,891.813H58.371A1.373,1.373,0,0,1,57,890.441v-4.81a1.373,1.373,0,0,1,1.371-1.371h4.81a1.373,1.373,0,0,1,1.371,1.371v4.81A1.371,1.371,0,0,1,63.183,891.813Zm-4.811-6.843a.663.663,0,0,0-.662.662v4.81a.663.663,0,0,0,.662.662h4.81a.663.663,0,0,0,.662-.662v-4.81a.663.663,0,0,0-.662-.662Z" transform="translate(-57 -884.26)" fill="#fff"/>
        </g>
        <g id="Group_1625" data-name="Group 1625" transform="translate(33.504 0.196)">
          <path id="Path_3102" data-name="Path 3102" d="M283.781,893.1h-4.81a1.373,1.373,0,0,1-1.371-1.372v-4.81a1.373,1.373,0,0,1,1.371-1.371h4.81a1.373,1.373,0,0,1,1.371,1.371v4.81A1.372,1.372,0,0,1,283.781,893.1Zm-4.81-6.844a.663.663,0,0,0-.662.662v4.81a.663.663,0,0,0,.662.662h4.81a.663.663,0,0,0,.662-.662v-4.81a.663.663,0,0,0-.662-.662Z" transform="translate(-277.6 -885.55)" fill="#fff"/>
        </g>
        <g id="Group_1626" data-name="Group 1626" transform="translate(25.128 0.196)">
          <path id="Path_3103" data-name="Path 3103" d="M228.631,893.1h-4.81a1.373,1.373,0,0,1-1.371-1.372v-4.81a1.373,1.373,0,0,1,1.371-1.371h4.81A1.373,1.373,0,0,1,230,886.922v4.81A1.371,1.371,0,0,1,228.631,893.1Zm-4.81-6.844a.663.663,0,0,0-.662.662v4.81a.663.663,0,0,0,.662.662h4.81a.663.663,0,0,0,.662-.662v-4.81a.663.663,0,0,0-.662-.662Z" transform="translate(-222.45 -885.55)" fill="#fff"/>
        </g>
        <g id="Group_1627" data-name="Group 1627" transform="translate(16.754 0.196)">
          <path id="Path_3104" data-name="Path 3104" d="M173.491,893.1h-4.81a1.373,1.373,0,0,1-1.371-1.372v-4.81a1.373,1.373,0,0,1,1.371-1.371h4.81a1.373,1.373,0,0,1,1.371,1.371v4.81A1.373,1.373,0,0,1,173.491,893.1Zm-4.811-6.844a.663.663,0,0,0-.662.662v4.81a.663.663,0,0,0,.662.662h4.81a.663.663,0,0,0,.662-.662v-4.81a.663.663,0,0,0-.662-.662Z" transform="translate(-167.31 -885.55)" fill="#fff"/>
        </g>
        <g id="Group_1628" data-name="Group 1628" transform="translate(8.378 0.196)">
          <path id="Path_3105" data-name="Path 3105" d="M118.341,893.1h-4.81a1.373,1.373,0,0,1-1.371-1.372v-4.81a1.373,1.373,0,0,1,1.371-1.371h4.81a1.373,1.373,0,0,1,1.371,1.371v4.81A1.373,1.373,0,0,1,118.341,893.1Zm-4.812-6.844a.663.663,0,0,0-.662.662v4.81a.663.663,0,0,0,.662.662h4.81a.663.663,0,0,0,.662-.662v-4.81a.663.663,0,0,0-.662-.662Z" transform="translate(-112.16 -885.55)" fill="#fff"/>
        </g>
      </g>
      <path id="Path_3106" data-name="Path 3106" d="M614.537,891.694h-4.81a1.4,1.4,0,0,1-1.4-1.4v-4.81a1.4,1.4,0,0,1,1.4-1.4h4.81a1.4,1.4,0,0,1,1.4,1.4v4.81A1.4,1.4,0,0,1,614.537,891.694Zm-4.812-7.554a1.349,1.349,0,0,0-1.347,1.347v4.81a1.349,1.349,0,0,0,1.347,1.347h4.81a1.349,1.349,0,0,0,1.347-1.347v-4.81a1.349,1.349,0,0,0-1.347-1.347Z" transform="translate(-524.57 -884.09)" fill="#0c1011"/>
      <path id="Path_3107" data-name="Path 3107" d="M835.127,892.984h-4.81a1.4,1.4,0,0,1-1.4-1.4v-4.81a1.4,1.4,0,0,1,1.4-1.4h4.81a1.4,1.4,0,0,1,1.4,1.4v4.81A1.4,1.4,0,0,1,835.127,892.984Zm-4.81-7.556a1.349,1.349,0,0,0-1.347,1.347v4.81a1.349,1.349,0,0,0,1.347,1.347h4.81a1.349,1.349,0,0,0,1.347-1.347v-4.81a1.349,1.349,0,0,0-1.347-1.347Z" transform="translate(-711.657 -885.184)" fill="#0c1011"/>
      <path id="Path_3108" data-name="Path 3108" d="M779.977,892.984h-4.81a1.4,1.4,0,0,1-1.4-1.4v-4.81a1.4,1.4,0,0,1,1.4-1.4h4.81a1.4,1.4,0,0,1,1.4,1.4v4.81A1.4,1.4,0,0,1,779.977,892.984Zm-4.81-7.556a1.349,1.349,0,0,0-1.347,1.347v4.81a1.349,1.349,0,0,0,1.347,1.347h4.81a1.349,1.349,0,0,0,1.347-1.347v-4.81a1.349,1.349,0,0,0-1.347-1.347Z" transform="translate(-664.883 -885.184)" fill="#0c1011"/>
      <path id="Path_3109" data-name="Path 3109" d="M724.827,892.984h-4.81a1.4,1.4,0,0,1-1.4-1.4v-4.81a1.4,1.4,0,0,1,1.4-1.4h4.81a1.4,1.4,0,0,1,1.4,1.4v4.81A1.4,1.4,0,0,1,724.827,892.984Zm-4.81-7.556a1.349,1.349,0,0,0-1.347,1.347v4.81a1.349,1.349,0,0,0,1.347,1.347h4.81a1.349,1.349,0,0,0,1.347-1.347v-4.81a1.349,1.349,0,0,0-1.347-1.347Z" transform="translate(-618.109 -885.184)" fill="#0c1011"/>
      <path id="Path_3110" data-name="Path 3110" d="M669.687,892.984h-4.81a1.4,1.4,0,0,1-1.4-1.4v-4.81a1.4,1.4,0,0,1,1.4-1.4h4.81a1.4,1.4,0,0,1,1.4,1.4v4.81A1.4,1.4,0,0,1,669.687,892.984Zm-4.811-7.556a1.349,1.349,0,0,0-1.347,1.347v4.81a1.349,1.349,0,0,0,1.347,1.347h4.81a1.349,1.349,0,0,0,1.347-1.347v-4.81a1.349,1.349,0,0,0-1.347-1.347Z" transform="translate(-571.344 -885.184)" fill="#0c1011"/>
      <path id="Path_3111" data-name="Path 3111" d="M338.787,891.694h-4.81a1.4,1.4,0,0,1-1.4-1.4v-4.81a1.4,1.4,0,0,1,1.4-1.4h4.81a1.4,1.4,0,0,1,1.4,1.4v4.81A1.4,1.4,0,0,1,338.787,891.694Zm-4.81-7.554a1.349,1.349,0,0,0-1.347,1.347v4.81a1.349,1.349,0,0,0,1.347,1.347h4.81a1.349,1.349,0,0,0,1.347-1.347v-4.81a1.349,1.349,0,0,0-1.347-1.347Z" transform="translate(-290.7 -884.09)" fill="#0c1011"/>
      <path id="Path_3112" data-name="Path 3112" d="M559.387,892.984h-4.81a1.4,1.4,0,0,1-1.4-1.4v-4.81a1.4,1.4,0,0,1,1.4-1.4h4.81a1.4,1.4,0,0,1,1.4,1.4v4.81A1.4,1.4,0,0,1,559.387,892.984Zm-4.81-7.556a1.349,1.349,0,0,0-1.347,1.347v4.81a1.349,1.349,0,0,0,1.347,1.347h4.81a1.349,1.349,0,0,0,1.347-1.347v-4.81a1.349,1.349,0,0,0-1.347-1.347Z" transform="translate(-477.796 -885.184)" fill="#0c1011"/>
      <path id="Path_3113" data-name="Path 3113" d="M504.237,892.984h-4.81a1.4,1.4,0,0,1-1.4-1.4v-4.81a1.4,1.4,0,0,1,1.4-1.4h4.81a1.4,1.4,0,0,1,1.4,1.4v4.81A1.4,1.4,0,0,1,504.237,892.984Zm-4.81-7.556a1.349,1.349,0,0,0-1.347,1.347v4.81a1.349,1.349,0,0,0,1.347,1.347h4.81a1.349,1.349,0,0,0,1.347-1.347v-4.81a1.349,1.349,0,0,0-1.347-1.347Z" transform="translate(-431.022 -885.184)" fill="#0c1011"/>
      <path id="Path_3114" data-name="Path 3114" d="M449.087,892.984h-4.81a1.4,1.4,0,0,1-1.4-1.4v-4.81a1.4,1.4,0,0,1,1.4-1.4h4.81a1.4,1.4,0,0,1,1.4,1.4v4.81A1.4,1.4,0,0,1,449.087,892.984Zm-4.81-7.556a1.349,1.349,0,0,0-1.347,1.347v4.81a1.349,1.349,0,0,0,1.347,1.347h4.81a1.349,1.349,0,0,0,1.347-1.347v-4.81a1.349,1.349,0,0,0-1.347-1.347Z" transform="translate(-384.248 -885.184)" fill="#0c1011"/>
      <path id="Path_3115" data-name="Path 3115" d="M393.937,892.984h-4.81a1.4,1.4,0,0,1-1.4-1.4v-4.81a1.4,1.4,0,0,1,1.4-1.4h4.81a1.4,1.4,0,0,1,1.4,1.4v4.81A1.4,1.4,0,0,1,393.937,892.984Zm-4.81-7.556a1.349,1.349,0,0,0-1.347,1.347v4.81a1.349,1.349,0,0,0,1.347,1.347h4.81a1.349,1.349,0,0,0,1.347-1.347v-4.81a1.349,1.349,0,0,0-1.347-1.347Z" transform="translate(-337.474 -885.184)" fill="#0c1011"/>
      <path id="Path_3116" data-name="Path 3116" d="M63.039,891.694H58.227a1.4,1.4,0,0,1-1.4-1.4v-4.81a1.4,1.4,0,0,1,1.4-1.4h4.81a1.4,1.4,0,0,1,1.4,1.4v4.81A1.4,1.4,0,0,1,63.039,891.694Zm-4.811-7.554a1.349,1.349,0,0,0-1.347,1.347v4.81a1.349,1.349,0,0,0,1.347,1.347h4.81a1.349,1.349,0,0,0,1.347-1.347v-4.81a1.349,1.349,0,0,0-1.347-1.347Z" transform="translate(-56.83 -884.09)" fill="#0c1011"/>
      <path id="Path_3117" data-name="Path 3117" d="M283.637,892.984h-4.81a1.4,1.4,0,0,1-1.4-1.4v-4.81a1.4,1.4,0,0,1,1.4-1.4h4.81a1.4,1.4,0,0,1,1.4,1.4v4.81A1.4,1.4,0,0,1,283.637,892.984Zm-4.81-7.556a1.349,1.349,0,0,0-1.347,1.347v4.81a1.349,1.349,0,0,0,1.347,1.347h4.81a1.349,1.349,0,0,0,1.347-1.347v-4.81a1.349,1.349,0,0,0-1.347-1.347Z" transform="translate(-243.926 -885.184)" fill="#0c1011"/>
      <path id="Path_3118" data-name="Path 3118" d="M228.487,892.984h-4.81a1.4,1.4,0,0,1-1.4-1.4v-4.81a1.4,1.4,0,0,1,1.4-1.4h4.81a1.4,1.4,0,0,1,1.4,1.4v4.81A1.4,1.4,0,0,1,228.487,892.984Zm-4.81-7.556a1.349,1.349,0,0,0-1.347,1.347v4.81a1.349,1.349,0,0,0,1.347,1.347h4.81a1.349,1.349,0,0,0,1.347-1.347v-4.81a1.349,1.349,0,0,0-1.347-1.347Z" transform="translate(-197.152 -885.184)" fill="#0c1011"/>
      <path id="Path_3119" data-name="Path 3119" d="M173.347,892.984h-4.81a1.4,1.4,0,0,1-1.4-1.4v-4.81a1.4,1.4,0,0,1,1.4-1.4h4.81a1.4,1.4,0,0,1,1.4,1.4v4.81A1.4,1.4,0,0,1,173.347,892.984Zm-4.812-7.556a1.349,1.349,0,0,0-1.347,1.347v4.81a1.349,1.349,0,0,0,1.347,1.347h4.81a1.349,1.349,0,0,0,1.347-1.347v-4.81a1.349,1.349,0,0,0-1.347-1.347Z" transform="translate(-150.386 -885.184)" fill="#0c1011"/>
      <path id="Path_3120" data-name="Path 3120" d="M118.2,892.984h-4.81a1.4,1.4,0,0,1-1.4-1.4v-4.81a1.4,1.4,0,0,1,1.4-1.4h4.81a1.4,1.4,0,0,1,1.4,1.4v4.81A1.4,1.4,0,0,1,118.2,892.984Zm-4.812-7.556a1.349,1.349,0,0,0-1.347,1.347v4.81a1.349,1.349,0,0,0,1.347,1.347h4.81a1.349,1.349,0,0,0,1.347-1.347v-4.81a1.349,1.349,0,0,0-1.347-1.347Z" transform="translate(-103.612 -885.184)" fill="#0c1011"/>
    </g>
    <path id="Path_3121" data-name="Path 3121" d="M63.039,675.185H58.227a1.4,1.4,0,0,1-1.4-1.4v-4.81a1.4,1.4,0,0,1,1.4-1.4h4.81a1.4,1.4,0,0,1,1.4,1.4v4.81A1.4,1.4,0,0,1,63.039,675.185Zm-4.811-7.554a1.349,1.349,0,0,0-1.347,1.347v4.81a1.349,1.349,0,0,0,1.347,1.347h4.81a1.349,1.349,0,0,0,1.347-1.347v-4.81a1.349,1.349,0,0,0-1.347-1.347Z" transform="translate(-48.276 -566.278)" fill="#0c1011"/>
    <path id="Path_3122" data-name="Path 3122" d="M63.039,729.306H58.227a1.4,1.4,0,0,1-1.4-1.4V723.1a1.4,1.4,0,0,1,1.4-1.4h4.81a1.4,1.4,0,0,1,1.4,1.4v4.81A1.4,1.4,0,0,1,63.039,729.306Zm-4.811-7.554A1.349,1.349,0,0,0,56.88,723.1v4.81a1.349,1.349,0,0,0,1.347,1.347h4.81a1.349,1.349,0,0,0,1.347-1.347V723.1a1.349,1.349,0,0,0-1.347-1.347h-4.81Z" transform="translate(-48.276 -612.178)" fill="#0c1011"/>
    <path id="Path_3123" data-name="Path 3123" d="M63.039,783.434H58.227a1.4,1.4,0,0,1-1.4-1.4v-4.81a1.4,1.4,0,0,1,1.4-1.4h4.81a1.4,1.4,0,0,1,1.4,1.4v4.81A1.4,1.4,0,0,1,63.039,783.434Zm-4.811-7.554a1.349,1.349,0,0,0-1.347,1.347v4.81a1.349,1.349,0,0,0,1.347,1.347h4.81a1.349,1.349,0,0,0,1.347-1.347v-4.81a1.349,1.349,0,0,0-1.347-1.347Z" transform="translate(-48.276 -658.087)" fill="#0c1011"/>
    <path id="Path_3124" data-name="Path 3124" d="M63.039,837.565H58.227a1.4,1.4,0,0,1-1.4-1.4v-4.81a1.4,1.4,0,0,1,1.4-1.4h4.81a1.4,1.4,0,0,1,1.4,1.4v4.81A1.4,1.4,0,0,1,63.039,837.565Zm-4.811-7.554a1.349,1.349,0,0,0-1.347,1.347v4.81a1.349,1.349,0,0,0,1.347,1.347h4.81a1.349,1.349,0,0,0,1.347-1.347v-4.81a1.349,1.349,0,0,0-1.347-1.347Z" transform="translate(-48.276 -703.996)" fill="#0c1011"/>
    <g id="Group_1631" data-name="Group 1631">
      <path id="Path_3125" data-name="Path 3125" d="M135.936,333.943a7.049,7.049,0,0,0,3.842-1.264,3.678,3.678,0,0,0,.583-.453c1.176-1.153,2.351-2.306,3.508-3.476a5.321,5.321,0,0,0-4.236-9.108,5.55,5.55,0,0,0-3.522,1.757c-.936.93-1.862,1.87-2.831,2.764a.824.824,0,0,1-.775.118c-.282-.229-.152-.554.115-.816,1.1-1.069,2.138-2.193,3.274-3.217a6.113,6.113,0,0,1,4.584-1.551,6.2,6.2,0,0,1,3.426,1.185,5.807,5.807,0,0,1,2.389,4.1,6,6,0,0,1-1.766,5.36c-.738.728-1.434,1.5-2.175,2.224a17.181,17.181,0,0,1-2.11,1.93,7.963,7.963,0,0,1-3.68,1.372,8.8,8.8,0,0,1-4.136-.571A9.762,9.762,0,0,1,129,331.735c-.6-.614-1.176-1.256-1.766-1.88a7.5,7.5,0,0,1-1.98-5.671,7.982,7.982,0,0,1,2.351-5.452q2.943-2.991,5.908-5.963c.232-.234.471-.466.822-.159.223.2.286.393.059.618-.99.984-2,1.952-2.969,2.954-1.374,1.42-2.822,2.786-4.047,4.327a6.413,6.413,0,0,0-1.192,4.187,7.462,7.462,0,0,0,2.474,5.41,24.454,24.454,0,0,0,2.717,2.541A6.892,6.892,0,0,0,135.936,333.943Z" transform="translate(-106.299 -265.094)" fill="#fff" stroke="#fff" stroke-miterlimit="10" stroke-width="1"/>
      <path id="Path_3126" data-name="Path 3126" d="M24.55,427.685c-2-.269-4.049-.564-6.1-.813-2.148-.26-4.3-.454-6.45-.715-1.933-.235-3.859-.53-5.79-.788-1.3-.175-2.606-.36-3.915-.474a1.006,1.006,0,0,0-.838.393c-.106.249.108.635.185.96,0,.017.024.029.038.043q2.3,2.292,4.6,4.582,3.06,3.039,6.124,6.072c.472.471.942.948,1.367,1.46.122.146.082.424.117.641-.232-.026-.551.038-.683-.091-1.443-1.4-2.857-2.829-4.28-4.25q-2.442-2.435-4.884-4.866C3.02,428.824,2.014,427.8,1,426.783a1.714,1.714,0,0,1-.328-1.924,1.817,1.817,0,0,1,1.813-.835c2.176.284,4.357.527,6.535.8,1.73.22,3.455.474,5.184.7,2.593.333,5.188.648,7.782.974.8.1,1.593.194,2.388.308.381.055.741.046.949-.327a.756.756,0,0,0-.159-.969c-.1-.106-.172-.251-.276-.355q-3.431-3.4-6.866-6.8-2.347-2.328-4.679-4.667a2.221,2.221,0,0,1-.418-.536c-.07-.137-.112-.421-.044-.469a.7.7,0,0,1,.547-.111c.181.062.32.263.465.415.1.108.172.249.276.356q3.019,3,6.042,5.992,2.734,2.711,5.466,5.427a1.71,1.71,0,0,1,.521,1.823,1.491,1.491,0,0,1-1.157,1.063A4.473,4.473,0,0,1,24.55,427.685Z" transform="translate(-0.511 -349.983)" fill="#fff" stroke="#fff" stroke-miterlimit="10" stroke-width="1"/>
      <path id="Path_3127" data-name="Path 3127" d="M228.092,221.711a7.3,7.3,0,0,0-2.266-5.51c-1.3-1.239-2.55-2.539-3.82-3.814-1.189-1.192-2.369-2.394-3.568-3.577-.281-.278-.363-.6-.079-.828a.771.771,0,0,1,.725.117c1.965,1.909,3.906,3.842,5.847,5.776.649.647,1.3,1.294,1.908,1.979a8.12,8.12,0,0,1,2,7.371,7.943,7.943,0,0,1-2.993,4.784,20.9,20.9,0,0,1-2.422,1.9,7.869,7.869,0,0,1-6.839.337,9.542,9.542,0,0,1-3.393-2.428c-.5-.5-.972-1.03-1.473-1.529q-2.627-2.622-5.263-5.232c-.094-.094-.249-.184-.264-.29a3.417,3.417,0,0,1,.026-.68c.219.017.509-.05.642.065.553.474,1.065,1,1.581,1.511,1.235,1.23,2.453,2.477,3.7,3.7a35.8,35.8,0,0,0,3.457,3.255,7.812,7.812,0,0,0,2.887,1.169,6.511,6.511,0,0,0,3.487-.258,6.344,6.344,0,0,0,2.57-1.469,27.265,27.265,0,0,0,2.269-2.509A6.454,6.454,0,0,0,228.092,221.711Z" transform="translate(-174.939 -176.44)" fill="#fff" stroke="#fff" stroke-miterlimit="10" stroke-width="1"/>
      <path id="Path_3128" data-name="Path 3128" d="M424.86.58c.117.128.2.229.3.323,2.371,2.343,4.717,4.714,7.123,7.021a8.564,8.564,0,0,1,2.782,5.149,8.1,8.1,0,0,1-.864,4.963,12.751,12.751,0,0,1-3.952,4.2,7.464,7.464,0,0,1-5.592,1.245,8.055,8.055,0,0,1-4.581-2.179c-1.413-1.349-2.772-2.75-4.152-4.133-1.163-1.165-2.313-2.342-3.489-3.493-.281-.275-.413-.574-.1-.8a.815.815,0,0,1,.77.117c2.035,1.974,4.031,3.99,6.061,5.969a32.4,32.4,0,0,0,2.83,2.559A6.139,6.139,0,0,0,425.86,22.6a6.5,6.5,0,0,0,4.057-1.276c2-1.534,3.808-3.282,4.193-5.952a7.2,7.2,0,0,0-2.172-6.481c-2.081-2.041-4.145-4.1-6.213-6.153-.393-.39-.764-.8-1.15-1.2C424.116,1.069,424.183.82,424.86.58Z" transform="translate(-349.633 -0.58)" fill="#fff" stroke="#fff" stroke-miterlimit="10" stroke-width="1"/>
      <path id="Path_3129" data-name="Path 3129" d="M323.9,119.591a3.231,3.231,0,0,1-2.813,3.422,5.068,5.068,0,0,1-2.152-.434c-1.654-.623-3.275-1.335-4.909-2.012-1.262-.524-2.52-1.059-3.786-1.573-1.287-.523-2.582-1.022-3.87-1.54-1.239-.5-2.485-.987-3.7-1.529-.188-.084-.258-.43-.384-.653.248-.059.542-.238.737-.161,1.58.629,3.138,1.309,4.705,1.964q3.759,1.57,7.524,3.129c1.4.582,2.794,1.172,4.2,1.736,1.687.676,3.262,0,3.584-1.851a2.049,2.049,0,0,0-.128-1.048c-.532-1.344-1.119-2.667-1.668-4-.6-1.463-1.171-2.937-1.769-4.4-.743-1.812-1.51-3.613-2.249-5.427-.434-1.066-.851-2.141-1.238-3.227-.056-.158.1-.392.155-.589.2.121.509.2.582.371.917,2.182,1.8,4.382,2.693,6.572.981,2.4,1.976,4.786,2.952,7.184.5,1.227.978,2.463,1.457,3.7A1.339,1.339,0,0,1,323.9,119.591Z" transform="translate(-256.448 -86.079)" fill="#fff" stroke="#fff" stroke-miterlimit="10" stroke-width="1"/>
    </g>
  </g>
</svg>
